<?xml version="1.0" encoding="us-ascii" standalone="no"?><svg xmlns="http://www.w3.org/2000/svg" xmlns:xlink="http://www.w3.org/1999/xlink" contentStyleType="text/css" height="1158px" preserveAspectRatio="none" style="width:556px;height:1158px;background:#FFFFFF;" version="1.1" viewBox="0 0 556 1158" width="556px" zoomAndPan="magnify"><defs/><g><!--class reports--><g id="elem_reports"><rect codeLine="4" fill="#F1F1F1" height="64.2969" id="reports" rx="2.5" ry="2.5" style="stroke:#181818;stroke-width:0.5;" width="149" x="16.5" y="129.23"/><ellipse cx="61.75" cy="145.23" fill="#ADD1B2" rx="11" ry="11" style="stroke:#181818;stroke-width:1.0;"/><path d="M64.7188,150.8706 Q64.1406,151.1675 63.5,151.3081 Q62.8594,151.4644 62.1563,151.4644 Q59.6563,151.4644 58.3281,149.8238 Q57.0156,148.1675 57.0156,145.0425 Q57.0156,141.9175 58.3281,140.2613 Q59.6563,138.605 62.1563,138.605 Q62.8594,138.605 63.5,138.7613 Q64.1563,138.9175 64.7188,139.2144 L64.7188,141.9331 Q64.0938,141.355 63.5,141.0894 Q62.9063,140.8081 62.2813,140.8081 Q60.9375,140.8081 60.25,141.8863 Q59.5625,142.9488 59.5625,145.0425 Q59.5625,147.1363 60.25,148.2144 Q60.9375,149.2769 62.2813,149.2769 Q62.9063,149.2769 63.5,149.0113 Q64.0938,148.73 64.7188,148.1519 L64.7188,150.8706 Z " fill="#000000"/><text fill="#000000" font-family="sans-serif" font-size="14" lengthAdjust="spacing" textLength="50" x="82.25" y="150.0767">reports</text><line style="stroke:#181818;stroke-width:0.5;" x1="17.5" x2="164.5" y1="161.23" y2="161.23"/><line style="stroke:#181818;stroke-width:0.5;" x1="17.5" x2="164.5" y1="169.23" y2="169.23"/><ellipse cx="27.5" cy="182.8784" fill="#84BE84" rx="3" ry="3" style="stroke:#038048;stroke-width:1.0;"/><text fill="#000000" font-family="sans-serif" font-size="14" lengthAdjust="spacing" textLength="123" x="36.5" y="186.2251">generatereports()</text></g><!--class system--><g id="elem_system"><rect codeLine="8" fill="#F1F1F1" height="308.75" id="system" rx="2.5" ry="2.5" style="stroke:#181818;stroke-width:0.5;" width="194" x="200" y="7"/><ellipse cx="267.75" cy="23" fill="#ADD1B2" rx="11" ry="11" style="stroke:#181818;stroke-width:1.0;"/><path d="M270.7188,28.6406 Q270.1406,28.9375 269.5,29.0781 Q268.8594,29.2344 268.1563,29.2344 Q265.6563,29.2344 264.3281,27.5938 Q263.0156,25.9375 263.0156,22.8125 Q263.0156,19.6875 264.3281,18.0313 Q265.6563,16.375 268.1563,16.375 Q268.8594,16.375 269.5,16.5313 Q270.1563,16.6875 270.7188,16.9844 L270.7188,19.7031 Q270.0938,19.125 269.5,18.8594 Q268.9063,18.5781 268.2813,18.5781 Q266.9375,18.5781 266.25,19.6563 Q265.5625,20.7188 265.5625,22.8125 Q265.5625,24.9063 266.25,25.9844 Q266.9375,27.0469 268.2813,27.0469 Q268.9063,27.0469 269.5,26.7813 Q270.0938,26.5 270.7188,25.9219 L270.7188,28.6406 Z " fill="#000000"/><text fill="#000000" font-family="sans-serif" font-size="14" lengthAdjust="spacing" textLength="50" x="288.25" y="27.8467">system</text><line style="stroke:#181818;stroke-width:0.5;" x1="201" x2="393" y1="39" y2="39"/><rect fill="none" height="6" style="stroke:#C82930;stroke-width:1.0;" width="6" x="208" y="49.6484"/><text fill="#000000" font-family="sans-serif" font-size="14" lengthAdjust="spacing" textLength="85" x="220" y="55.9951">email: String</text><line style="stroke:#181818;stroke-width:0.5;" x1="201" x2="393" y1="63.2969" y2="63.2969"/><ellipse cx="211" cy="76.9453" fill="#84BE84" rx="3" ry="3" style="stroke:#038048;stroke-width:1.0;"/><text fill="#000000" font-family="sans-serif" font-size="14" lengthAdjust="spacing" textLength="110" x="220" y="80.292">sendsupdates()</text><ellipse cx="211" cy="93.2422" fill="#84BE84" rx="3" ry="3" style="stroke:#038048;stroke-width:1.0;"/><text fill="#000000" font-family="sans-serif" font-size="14" lengthAdjust="spacing" textLength="89" x="220" y="96.5889">sendsemail()</text><ellipse cx="211" cy="109.5391" fill="#84BE84" rx="3" ry="3" style="stroke:#038048;stroke-width:1.0;"/><text fill="#000000" font-family="sans-serif" font-size="14" lengthAdjust="spacing" textLength="144" x="220" y="112.8857">supportslanguages()</text><ellipse cx="211" cy="125.8359" fill="#84BE84" rx="3" ry="3" style="stroke:#038048;stroke-width:1.0;"/><text fill="#000000" font-family="sans-serif" font-size="14" lengthAdjust="spacing" textLength="39" x="220" y="129.1826">logs()</text><ellipse cx="211" cy="142.1328" fill="#84BE84" rx="3" ry="3" style="stroke:#038048;stroke-width:1.0;"/><text fill="#000000" font-family="sans-serif" font-size="14" lengthAdjust="spacing" textLength="80" x="220" y="145.4795">logserrors()</text><ellipse cx="211" cy="158.4297" fill="#84BE84" rx="3" ry="3" style="stroke:#038048;stroke-width:1.0;"/><text fill="#000000" font-family="sans-serif" font-size="14" lengthAdjust="spacing" textLength="97" x="220" y="161.7764">maintainslog()</text><ellipse cx="211" cy="174.7266" fill="#84BE84" rx="3" ry="3" style="stroke:#038048;stroke-width:1.0;"/><text fill="#000000" font-family="sans-serif" font-size="14" lengthAdjust="spacing" textLength="131" x="220" y="178.0732">performsbackups()</text><ellipse cx="211" cy="191.0234" fill="#84BE84" rx="3" ry="3" style="stroke:#038048;stroke-width:1.0;"/><text fill="#000000" font-family="sans-serif" font-size="14" lengthAdjust="spacing" textLength="114" x="220" y="194.3701">verifiesaddress()</text><ellipse cx="211" cy="207.3203" fill="#84BE84" rx="3" ry="3" style="stroke:#038048;stroke-width:1.0;"/><text fill="#000000" font-family="sans-serif" font-size="14" lengthAdjust="spacing" textLength="151" x="220" y="210.667">providesfunctionality()</text><ellipse cx="211" cy="223.6172" fill="#84BE84" rx="3" ry="3" style="stroke:#038048;stroke-width:1.0;"/><text fill="#000000" font-family="sans-serif" font-size="14" lengthAdjust="spacing" textLength="84" x="220" y="226.9639">storesdata()</text><ellipse cx="211" cy="239.9141" fill="#84BE84" rx="3" ry="3" style="stroke:#038048;stroke-width:1.0;"/><text fill="#000000" font-family="sans-serif" font-size="14" lengthAdjust="spacing" textLength="100" x="220" y="243.2607">encryptsdata()</text><ellipse cx="211" cy="256.2109" fill="#84BE84" rx="3" ry="3" style="stroke:#038048;stroke-width:1.0;"/><text fill="#000000" font-family="sans-serif" font-size="14" lengthAdjust="spacing" textLength="128" x="220" y="259.5576">sendsnotification()</text><ellipse cx="211" cy="272.5078" fill="#84BE84" rx="3" ry="3" style="stroke:#038048;stroke-width:1.0;"/><text fill="#000000" font-family="sans-serif" font-size="14" lengthAdjust="spacing" textLength="168" x="220" y="275.8545">providesauthentication()</text><ellipse cx="211" cy="288.8047" fill="#84BE84" rx="3" ry="3" style="stroke:#038048;stroke-width:1.0;"/><text fill="#000000" font-family="sans-serif" font-size="14" lengthAdjust="spacing" textLength="120" x="220" y="292.1514">providessection()</text><ellipse cx="211" cy="305.1016" fill="#84BE84" rx="3" ry="3" style="stroke:#038048;stroke-width:1.0;"/><text fill="#000000" font-family="sans-serif" font-size="14" lengthAdjust="spacing" textLength="90" x="220" y="308.4482">providesAPI()</text></g><!--class data--><g id="elem_data"><rect codeLine="27" fill="#F1F1F1" height="64.2969" id="data" rx="2.5" ry="2.5" style="stroke:#181818;stroke-width:0.5;" width="110" x="429" y="129.23"/><ellipse cx="465.6" cy="145.23" fill="#ADD1B2" rx="11" ry="11" style="stroke:#181818;stroke-width:1.0;"/><path d="M468.5688,150.8706 Q467.9906,151.1675 467.35,151.3081 Q466.7094,151.4644 466.0063,151.4644 Q463.5063,151.4644 462.1781,149.8238 Q460.8656,148.1675 460.8656,145.0425 Q460.8656,141.9175 462.1781,140.2613 Q463.5063,138.605 466.0063,138.605 Q466.7094,138.605 467.35,138.7613 Q468.0063,138.9175 468.5688,139.2144 L468.5688,141.9331 Q467.9438,141.355 467.35,141.0894 Q466.7563,140.8081 466.1313,140.8081 Q464.7875,140.8081 464.1,141.8863 Q463.4125,142.9488 463.4125,145.0425 Q463.4125,147.1363 464.1,148.2144 Q464.7875,149.2769 466.1313,149.2769 Q466.7563,149.2769 467.35,149.0113 Q467.9438,148.73 468.5688,148.1519 L468.5688,150.8706 Z " fill="#000000"/><text fill="#000000" font-family="sans-serif" font-size="14" lengthAdjust="spacing" textLength="30" x="484.4" y="150.0767">data</text><line style="stroke:#181818;stroke-width:0.5;" x1="430" x2="538" y1="161.23" y2="161.23"/><line style="stroke:#181818;stroke-width:0.5;" x1="430" x2="538" y1="169.23" y2="169.23"/><ellipse cx="440" cy="182.8784" fill="#84BE84" rx="3" ry="3" style="stroke:#038048;stroke-width:1.0;"/><text fill="#000000" font-family="sans-serif" font-size="14" lengthAdjust="spacing" textLength="84" x="449" y="186.2251">storesdata()</text></g><!--class password--><g id="elem_password"><rect codeLine="31" fill="#F1F1F1" height="96.8906" id="password" rx="2.5" ry="2.5" style="stroke:#181818;stroke-width:0.5;" width="155" x="13.5" y="473.53"/><ellipse cx="53.7" cy="489.53" fill="#ADD1B2" rx="11" ry="11" style="stroke:#181818;stroke-width:1.0;"/><path d="M56.6688,495.1706 Q56.0906,495.4675 55.45,495.6081 Q54.8094,495.7644 54.1063,495.7644 Q51.6063,495.7644 50.2781,494.1238 Q48.9656,492.4675 48.9656,489.3425 Q48.9656,486.2175 50.2781,484.5613 Q51.6063,482.905 54.1063,482.905 Q54.8094,482.905 55.45,483.0613 Q56.1063,483.2175 56.6688,483.5144 L56.6688,486.2331 Q56.0438,485.655 55.45,485.3894 Q54.8563,485.1081 54.2313,485.1081 Q52.8875,485.1081 52.2,486.1863 Q51.5125,487.2488 51.5125,489.3425 Q51.5125,491.4363 52.2,492.5144 Q52.8875,493.5769 54.2313,493.5769 Q54.8563,493.5769 55.45,493.3113 Q56.0438,493.03 56.6688,492.4519 L56.6688,495.1706 Z " fill="#000000"/><text fill="#000000" font-family="sans-serif" font-size="14" lengthAdjust="spacing" textLength="67" x="73.3" y="494.3767">password</text><line style="stroke:#181818;stroke-width:0.5;" x1="14.5" x2="167.5" y1="505.53" y2="505.53"/><rect fill="none" height="6" style="stroke:#C82930;stroke-width:1.0;" width="6" x="21.5" y="516.1784"/><text fill="#000000" font-family="sans-serif" font-size="14" lengthAdjust="spacing" textLength="85" x="33.5" y="522.5251">email: String</text><rect fill="none" height="6" style="stroke:#C82930;stroke-width:1.0;" width="6" x="21.5" y="532.4753"/><text fill="#000000" font-family="sans-serif" font-size="14" lengthAdjust="spacing" textLength="116" x="33.5" y="538.822">password: String</text><line style="stroke:#181818;stroke-width:0.5;" x1="14.5" x2="167.5" y1="546.1238" y2="546.1238"/><ellipse cx="24.5" cy="559.7722" fill="#84BE84" rx="3" ry="3" style="stroke:#038048;stroke-width:1.0;"/><text fill="#000000" font-family="sans-serif" font-size="14" lengthAdjust="spacing" textLength="129" x="33.5" y="563.1189">recoverpassword()</text></g><!--class support--><g id="elem_support"><rect codeLine="37" fill="#F1F1F1" height="64.2969" id="support" rx="2.5" ry="2.5" style="stroke:#181818;stroke-width:0.5;" width="144" x="204" y="489.83"/><ellipse cx="245.1" cy="505.83" fill="#ADD1B2" rx="11" ry="11" style="stroke:#181818;stroke-width:1.0;"/><path d="M248.0688,511.4706 Q247.4906,511.7675 246.85,511.9081 Q246.2094,512.0644 245.5063,512.0644 Q243.0063,512.0644 241.6781,510.4237 Q240.3656,508.7675 240.3656,505.6425 Q240.3656,502.5175 241.6781,500.8612 Q243.0063,499.205 245.5063,499.205 Q246.2094,499.205 246.85,499.3612 Q247.5063,499.5175 248.0688,499.8144 L248.0688,502.5331 Q247.4438,501.955 246.85,501.6894 Q246.2563,501.4081 245.6313,501.4081 Q244.2875,501.4081 243.6,502.4862 Q242.9125,503.5487 242.9125,505.6425 Q242.9125,507.7362 243.6,508.8144 Q244.2875,509.8769 245.6313,509.8769 Q246.2563,509.8769 246.85,509.6112 Q247.4438,509.33 248.0688,508.7519 L248.0688,511.4706 Z " fill="#000000"/><text fill="#000000" font-family="sans-serif" font-size="14" lengthAdjust="spacing" textLength="54" x="264.9" y="510.6767">support</text><line style="stroke:#181818;stroke-width:0.5;" x1="205" x2="347" y1="521.83" y2="521.83"/><line style="stroke:#181818;stroke-width:0.5;" x1="205" x2="347" y1="529.83" y2="529.83"/><ellipse cx="215" cy="543.4784" fill="#84BE84" rx="3" ry="3" style="stroke:#038048;stroke-width:1.0;"/><text fill="#000000" font-family="sans-serif" font-size="14" lengthAdjust="spacing" textLength="118" x="224" y="546.8251">requestsupport()</text></g><!--class admin--><g id="elem_admin"><rect codeLine="41" fill="#F1F1F1" height="292.4531" id="admin" rx="2.5" ry="2.5" style="stroke:#181818;stroke-width:0.5;" width="167" x="382.5" y="375.75"/><ellipse cx="440.75" cy="391.75" fill="#ADD1B2" rx="11" ry="11" style="stroke:#181818;stroke-width:1.0;"/><path d="M443.7188,397.3906 Q443.1406,397.6875 442.5,397.8281 Q441.8594,397.9844 441.1563,397.9844 Q438.6563,397.9844 437.3281,396.3438 Q436.0156,394.6875 436.0156,391.5625 Q436.0156,388.4375 437.3281,386.7813 Q438.6563,385.125 441.1563,385.125 Q441.8594,385.125 442.5,385.2813 Q443.1563,385.4375 443.7188,385.7344 L443.7188,388.4531 Q443.0938,387.875 442.5,387.6094 Q441.9063,387.3281 441.2813,387.3281 Q439.9375,387.3281 439.25,388.4063 Q438.5625,389.4688 438.5625,391.5625 Q438.5625,393.6563 439.25,394.7344 Q439.9375,395.7969 441.2813,395.7969 Q441.9063,395.7969 442.5,395.5313 Q443.0938,395.25 443.7188,394.6719 L443.7188,397.3906 Z " fill="#000000"/><text fill="#000000" font-family="sans-serif" font-size="14" lengthAdjust="spacing" textLength="42" x="461.25" y="396.5967">admin</text><line style="stroke:#181818;stroke-width:0.5;" x1="383.5" x2="548.5" y1="407.75" y2="407.75"/><rect fill="none" height="6" style="stroke:#C82930;stroke-width:1.0;" width="6" x="390.5" y="418.3984"/><text fill="#000000" font-family="sans-serif" font-size="14" lengthAdjust="spacing" textLength="116" x="402.5" y="424.7451">password: String</text><rect fill="none" height="6" style="stroke:#C82930;stroke-width:1.0;" width="6" x="390.5" y="434.6953"/><text fill="#000000" font-family="sans-serif" font-size="14" lengthAdjust="spacing" textLength="91" x="402.5" y="441.042">profile: String</text><line style="stroke:#181818;stroke-width:0.5;" x1="383.5" x2="548.5" y1="448.3438" y2="448.3438"/><ellipse cx="393.5" cy="461.9922" fill="#84BE84" rx="3" ry="3" style="stroke:#038048;stroke-width:1.0;"/><text fill="#000000" font-family="sans-serif" font-size="14" lengthAdjust="spacing" textLength="113" x="402.5" y="465.3389">resetpassword()</text><ellipse cx="393.5" cy="478.2891" fill="#84BE84" rx="3" ry="3" style="stroke:#038048;stroke-width:1.0;"/><text fill="#000000" font-family="sans-serif" font-size="14" lengthAdjust="spacing" textLength="141" x="402.5" y="481.6357">reactivateaccounts()</text><ellipse cx="393.5" cy="494.5859" fill="#84BE84" rx="3" ry="3" style="stroke:#038048;stroke-width:1.0;"/><text fill="#000000" font-family="sans-serif" font-size="14" lengthAdjust="spacing" textLength="75" x="402.5" y="497.9326">addusers()</text><ellipse cx="393.5" cy="510.8828" fill="#84BE84" rx="3" ry="3" style="stroke:#038048;stroke-width:1.0;"/><text fill="#000000" font-family="sans-serif" font-size="14" lengthAdjust="spacing" textLength="128" x="402.5" y="514.2295">sendnotifications()</text><ellipse cx="393.5" cy="527.1797" fill="#84BE84" rx="3" ry="3" style="stroke:#038048;stroke-width:1.0;"/><text fill="#000000" font-family="sans-serif" font-size="14" lengthAdjust="spacing" textLength="101" x="402.5" y="530.5264">viewstatistics()</text><ellipse cx="393.5" cy="543.4766" fill="#84BE84" rx="3" ry="3" style="stroke:#038048;stroke-width:1.0;"/><text fill="#000000" font-family="sans-serif" font-size="14" lengthAdjust="spacing" textLength="122" x="402.5" y="546.8232">managesettings()</text><ellipse cx="393.5" cy="559.7734" fill="#84BE84" rx="3" ry="3" style="stroke:#038048;stroke-width:1.0;"/><text fill="#000000" font-family="sans-serif" font-size="14" lengthAdjust="spacing" textLength="111" x="402.5" y="563.1201">scheduletasks()</text><ellipse cx="393.5" cy="576.0703" fill="#84BE84" rx="3" ry="3" style="stroke:#038048;stroke-width:1.0;"/><text fill="#000000" font-family="sans-serif" font-size="14" lengthAdjust="spacing" textLength="100" x="402.5" y="579.417">manageroles()</text><ellipse cx="393.5" cy="592.3672" fill="#84BE84" rx="3" ry="3" style="stroke:#038048;stroke-width:1.0;"/><text fill="#000000" font-family="sans-serif" font-size="14" lengthAdjust="spacing" textLength="135" x="402.5" y="595.7139">suspendaccounts()</text><ellipse cx="393.5" cy="608.6641" fill="#84BE84" rx="3" ry="3" style="stroke:#038048;stroke-width:1.0;"/><text fill="#000000" font-family="sans-serif" font-size="14" lengthAdjust="spacing" textLength="93" x="402.5" y="612.0107">deleteusers()</text><ellipse cx="393.5" cy="624.9609" fill="#84BE84" rx="3" ry="3" style="stroke:#038048;stroke-width:1.0;"/><text fill="#000000" font-family="sans-serif" font-size="14" lengthAdjust="spacing" textLength="123" x="402.5" y="628.3076">generatereports()</text><ellipse cx="393.5" cy="641.2578" fill="#84BE84" rx="3" ry="3" style="stroke:#038048;stroke-width:1.0;"/><text fill="#000000" font-family="sans-serif" font-size="14" lengthAdjust="spacing" textLength="138" x="402.5" y="644.6045">performoperations()</text><ellipse cx="393.5" cy="657.5547" fill="#84BE84" rx="3" ry="3" style="stroke:#038048;stroke-width:1.0;"/><text fill="#000000" font-family="sans-serif" font-size="14" lengthAdjust="spacing" textLength="109" x="402.5" y="660.9014">updatesprofile()</text></g><!--class user--><g id="elem_user"><rect codeLine="59" fill="#F1F1F1" height="422.8281" id="user" rx="2.5" ry="2.5" style="stroke:#181818;stroke-width:0.5;" width="168" x="7" y="728.2"/><ellipse cx="71.25" cy="744.2" fill="#ADD1B2" rx="11" ry="11" style="stroke:#181818;stroke-width:1.0;"/><path d="M74.2188,749.8406 Q73.6406,750.1375 73,750.2781 Q72.3594,750.4344 71.6563,750.4344 Q69.1563,750.4344 67.8281,748.7938 Q66.5156,747.1375 66.5156,744.0125 Q66.5156,740.8875 67.8281,739.2313 Q69.1563,737.575 71.6563,737.575 Q72.3594,737.575 73,737.7313 Q73.6563,737.8875 74.2188,738.1844 L74.2188,740.9031 Q73.5938,740.325 73,740.0594 Q72.4063,739.7781 71.7813,739.7781 Q70.4375,739.7781 69.75,740.8563 Q69.0625,741.9188 69.0625,744.0125 Q69.0625,746.1063 69.75,747.1844 Q70.4375,748.2469 71.7813,748.2469 Q72.4063,748.2469 73,747.9813 Q73.5938,747.7 74.2188,747.1219 L74.2188,749.8406 Z " fill="#000000"/><text fill="#000000" font-family="sans-serif" font-size="14" lengthAdjust="spacing" textLength="31" x="91.75" y="749.0467">user</text><line style="stroke:#181818;stroke-width:0.5;" x1="8" x2="174" y1="760.2" y2="760.2"/><rect fill="none" height="6" style="stroke:#C82930;stroke-width:1.0;" width="6" x="15" y="770.8484"/><text fill="#000000" font-family="sans-serif" font-size="14" lengthAdjust="spacing" textLength="119" x="27" y="777.1951">username: String</text><rect fill="none" height="6" style="stroke:#C82930;stroke-width:1.0;" width="6" x="15" y="787.1453"/><text fill="#000000" font-family="sans-serif" font-size="14" lengthAdjust="spacing" textLength="91" x="27" y="793.492">profile: String</text><rect fill="none" height="6" style="stroke:#C82930;stroke-width:1.0;" width="6" x="15" y="803.4422"/><text fill="#000000" font-family="sans-serif" font-size="14" lengthAdjust="spacing" textLength="85" x="27" y="809.7889">email: String</text><rect fill="none" height="6" style="stroke:#C82930;stroke-width:1.0;" width="6" x="15" y="819.7391"/><text fill="#000000" font-family="sans-serif" font-size="14" lengthAdjust="spacing" textLength="116" x="27" y="826.0857">password: String</text><rect fill="none" height="6" style="stroke:#C82930;stroke-width:1.0;" width="6" x="15" y="836.0359"/><text fill="#000000" font-family="sans-serif" font-size="14" lengthAdjust="spacing" textLength="95" x="27" y="842.3826">activity: String</text><rect fill="none" height="6" style="stroke:#C82930;stroke-width:1.0;" width="6" x="15" y="852.3328"/><text fill="#000000" font-family="sans-serif" font-size="14" lengthAdjust="spacing" textLength="103" x="27" y="858.6795">content: String</text><rect fill="none" height="6" style="stroke:#C82930;stroke-width:1.0;" width="6" x="15" y="868.6297"/><text fill="#000000" font-family="sans-serif" font-size="14" lengthAdjust="spacing" textLength="99" x="27" y="874.9764">favorite: String</text><rect fill="none" height="6" style="stroke:#C82930;stroke-width:1.0;" width="6" x="15" y="884.9266"/><text fill="#000000" font-family="sans-serif" font-size="14" lengthAdjust="spacing" textLength="80" x="27" y="891.2732">user: String</text><line style="stroke:#181818;stroke-width:0.5;" x1="8" x2="174" y1="898.575" y2="898.575"/><ellipse cx="18" cy="912.2234" fill="#84BE84" rx="3" ry="3" style="stroke:#038048;stroke-width:1.0;"/><text fill="#000000" font-family="sans-serif" font-size="14" lengthAdjust="spacing" textLength="129" x="27" y="915.5701">recoverpassword()</text><ellipse cx="18" cy="928.5203" fill="#84BE84" rx="3" ry="3" style="stroke:#038048;stroke-width:1.0;"/><text fill="#000000" font-family="sans-serif" font-size="14" lengthAdjust="spacing" textLength="142" x="27" y="931.867">customizeinterface()</text><ellipse cx="18" cy="944.8172" fill="#84BE84" rx="3" ry="3" style="stroke:#038048;stroke-width:1.0;"/><text fill="#000000" font-family="sans-serif" font-size="14" lengthAdjust="spacing" textLength="86" x="27" y="948.1639">viewhistory()</text><ellipse cx="18" cy="961.1141" fill="#84BE84" rx="3" ry="3" style="stroke:#038048;stroke-width:1.0;"/><text fill="#000000" font-family="sans-serif" font-size="14" lengthAdjust="spacing" textLength="39" x="27" y="964.4607">logs()</text><ellipse cx="18" cy="977.4109" fill="#84BE84" rx="3" ry="3" style="stroke:#038048;stroke-width:1.0;"/><text fill="#000000" font-family="sans-serif" font-size="14" lengthAdjust="spacing" textLength="118" x="27" y="980.7576">requestsupport()</text><ellipse cx="18" cy="993.7078" fill="#84BE84" rx="3" ry="3" style="stroke:#038048;stroke-width:1.0;"/><text fill="#000000" font-family="sans-serif" font-size="14" lengthAdjust="spacing" textLength="117" x="27" y="997.0545">sendmessages()</text><ellipse cx="18" cy="1010.0047" fill="#84BE84" rx="3" ry="3" style="stroke:#038048;stroke-width:1.0;"/><text fill="#000000" font-family="sans-serif" font-size="14" lengthAdjust="spacing" textLength="84" x="27" y="1013.3514">uploadfiles()</text><ellipse cx="18" cy="1026.3016" fill="#84BE84" rx="3" ry="3" style="stroke:#038048;stroke-width:1.0;"/><text fill="#000000" font-family="sans-serif" font-size="14" lengthAdjust="spacing" textLength="33" x="27" y="1029.6482">opt()</text><ellipse cx="18" cy="1042.5984" fill="#84BE84" rx="3" ry="3" style="stroke:#038048;stroke-width:1.0;"/><text fill="#000000" font-family="sans-serif" font-size="14" lengthAdjust="spacing" textLength="104" x="27" y="1045.9451">downloadfiles()</text><ellipse cx="18" cy="1058.8953" fill="#84BE84" rx="3" ry="3" style="stroke:#038048;stroke-width:1.0;"/><text fill="#000000" font-family="sans-serif" font-size="14" lengthAdjust="spacing" textLength="57" x="27" y="1062.242">search()</text><ellipse cx="18" cy="1075.1922" fill="#84BE84" rx="3" ry="3" style="stroke:#038048;stroke-width:1.0;"/><text fill="#000000" font-family="sans-serif" font-size="14" lengthAdjust="spacing" textLength="103" x="27" y="1078.5389">sharecontent()</text><ellipse cx="18" cy="1091.4891" fill="#84BE84" rx="3" ry="3" style="stroke:#038048;stroke-width:1.0;"/><text fill="#000000" font-family="sans-serif" font-size="14" lengthAdjust="spacing" textLength="122" x="27" y="1094.8357">bookmarkpages()</text><ellipse cx="18" cy="1107.7859" fill="#84BE84" rx="3" ry="3" style="stroke:#038048;stroke-width:1.0;"/><text fill="#000000" font-family="sans-serif" font-size="14" lengthAdjust="spacing" textLength="54" x="27" y="1111.1326">import()</text><ellipse cx="18" cy="1124.0828" fill="#84BE84" rx="3" ry="3" style="stroke:#038048;stroke-width:1.0;"/><text fill="#000000" font-family="sans-serif" font-size="14" lengthAdjust="spacing" textLength="107" x="27" y="1127.4295">updatepicture()</text><ellipse cx="18" cy="1140.3797" fill="#84BE84" rx="3" ry="3" style="stroke:#038048;stroke-width:1.0;"/><text fill="#000000" font-family="sans-serif" font-size="14" lengthAdjust="spacing" textLength="129" x="27" y="1143.7264">changepassword()</text></g><!--SRC=[ZLH1Zjim3Bpd5RwbHU4Fx6snfzuAz0LSYOc5sA8gKWdIedzVof4SsKcn3P306L8aDJFq_cq4PkINtRvlFxkToO4kOg0etFtPTTstxeWU8mWMzClNtT-kPlAL1QSviUzm0ZU-T3ybEd-SZp9woobOFPtFBT2SMO4KvheZ-6E2uv8uqh5zn1WfLa2FUz4lQwH00UE1uiJlO4ufrCGpHdTmo61jHAveY7Hs5lcGl1577aOdrpgEa6Rgn500z2PUWxJGV0TFegKDv0ARkf1aG2_FWupc2Vhwu_kAsDojyB-Qw9uHzET2qVw3_7v9M2aIqP2IKcDhCMzAbBOHVoLaAU0g4UpaVEdxf4kVRtLm8suwCqhJzuQ1ad5MUu0nbBnKXLIlf9AtfcdvNkHrU65HY9NikpbyjX6AQEkbWXdGfX45-BHEZ3JUpPauQAlDC1Rr7BRpFAv4Oq4AETPCMHQWaB9YCXSjHEP73nD-GkH_AjrtCxFgwnLeo8iwSuKTu4pHoRf9dkOJusJK97Ndv7wZxgFU7WmsoWmkM_VwkCyFrgeQJxeUpIiWXP70PW8gGg6cMxhuRPGHeXdgdm7opFDz2_HET9eWdaBJmqtD33UbWZEIOhs96VJ5X9k5sRyoat4tcRUlqGy0]--></g></svg>