<?xml version="1.0" encoding="us-ascii" standalone="no"?><svg xmlns="http://www.w3.org/2000/svg" xmlns:xlink="http://www.w3.org/1999/xlink" contentStyleType="text/css" height="962px" preserveAspectRatio="none" style="width:590px;height:962px;background:#FFFFFF;" version="1.1" viewBox="0 0 590 962" width="590px" zoomAndPan="magnify"><defs/><g><!--class reports--><g id="elem_reports"><rect codeLine="4" fill="#F1F1F1" height="64.2969" id="reports" rx="2.5" ry="2.5" style="stroke:#181818;stroke-width:0.5;" width="149" x="29.5" y="186.27"/><ellipse cx="74.75" cy="202.27" fill="#ADD1B2" rx="11" ry="11" style="stroke:#181818;stroke-width:1.0;"/><path d="M77.7188,207.9106 Q77.1406,208.2075 76.5,208.3481 Q75.8594,208.5044 75.1563,208.5044 Q72.6563,208.5044 71.3281,206.8637 Q70.0156,205.2075 70.0156,202.0825 Q70.0156,198.9575 71.3281,197.3012 Q72.6563,195.645 75.1563,195.645 Q75.8594,195.645 76.5,195.8012 Q77.1563,195.9575 77.7188,196.2544 L77.7188,198.9731 Q77.0938,198.395 76.5,198.1294 Q75.9063,197.8481 75.2813,197.8481 Q73.9375,197.8481 73.25,198.9262 Q72.5625,199.9887 72.5625,202.0825 Q72.5625,204.1762 73.25,205.2544 Q73.9375,206.3169 75.2813,206.3169 Q75.9063,206.3169 76.5,206.0512 Q77.0938,205.77 77.7188,205.1919 L77.7188,207.9106 Z " fill="#000000"/><text fill="#000000" font-family="sans-serif" font-size="14" lengthAdjust="spacing" textLength="50" x="95.25" y="207.1167">reports</text><line style="stroke:#181818;stroke-width:0.5;" x1="30.5" x2="177.5" y1="218.27" y2="218.27"/><line style="stroke:#181818;stroke-width:0.5;" x1="30.5" x2="177.5" y1="226.27" y2="226.27"/><ellipse cx="40.5" cy="239.9184" fill="#84BE84" rx="3" ry="3" style="stroke:#038048;stroke-width:1.0;"/><text fill="#000000" font-family="sans-serif" font-size="14" lengthAdjust="spacing" textLength="123" x="49.5" y="243.2651">generatereports()</text></g><!--class admin--><g id="elem_admin"><rect codeLine="8" fill="#F1F1F1" height="292.4531" id="admin" rx="2.5" ry="2.5" style="stroke:#181818;stroke-width:0.5;" width="167" x="213.5" y="72.19"/><ellipse cx="271.75" cy="88.19" fill="#ADD1B2" rx="11" ry="11" style="stroke:#181818;stroke-width:1.0;"/><path d="M274.7188,93.8306 Q274.1406,94.1275 273.5,94.2681 Q272.8594,94.4244 272.1563,94.4244 Q269.6563,94.4244 268.3281,92.7838 Q267.0156,91.1275 267.0156,88.0025 Q267.0156,84.8775 268.3281,83.2213 Q269.6563,81.565 272.1563,81.565 Q272.8594,81.565 273.5,81.7213 Q274.1563,81.8775 274.7188,82.1744 L274.7188,84.8931 Q274.0938,84.315 273.5,84.0494 Q272.9063,83.7681 272.2813,83.7681 Q270.9375,83.7681 270.25,84.8463 Q269.5625,85.9088 269.5625,88.0025 Q269.5625,90.0963 270.25,91.1744 Q270.9375,92.2369 272.2813,92.2369 Q272.9063,92.2369 273.5,91.9713 Q274.0938,91.69 274.7188,91.1119 L274.7188,93.8306 Z " fill="#000000"/><text fill="#000000" font-family="sans-serif" font-size="14" lengthAdjust="spacing" textLength="42" x="292.25" y="93.0367">admin</text><line style="stroke:#181818;stroke-width:0.5;" x1="214.5" x2="379.5" y1="104.19" y2="104.19"/><rect fill="none" height="6" style="stroke:#C82930;stroke-width:1.0;" width="6" x="221.5" y="114.8384"/><text fill="#000000" font-family="sans-serif" font-size="14" lengthAdjust="spacing" textLength="91" x="233.5" y="121.1851">profile: String</text><rect fill="none" height="6" style="stroke:#C82930;stroke-width:1.0;" width="6" x="221.5" y="131.1353"/><text fill="#000000" font-family="sans-serif" font-size="14" lengthAdjust="spacing" textLength="116" x="233.5" y="137.482">password: String</text><line style="stroke:#181818;stroke-width:0.5;" x1="214.5" x2="379.5" y1="144.7838" y2="144.7838"/><ellipse cx="224.5" cy="158.4322" fill="#84BE84" rx="3" ry="3" style="stroke:#038048;stroke-width:1.0;"/><text fill="#000000" font-family="sans-serif" font-size="14" lengthAdjust="spacing" textLength="109" x="233.5" y="161.7789">updatesprofile()</text><ellipse cx="224.5" cy="174.7291" fill="#84BE84" rx="3" ry="3" style="stroke:#038048;stroke-width:1.0;"/><text fill="#000000" font-family="sans-serif" font-size="14" lengthAdjust="spacing" textLength="100" x="233.5" y="178.0757">manageroles()</text><ellipse cx="224.5" cy="191.0259" fill="#84BE84" rx="3" ry="3" style="stroke:#038048;stroke-width:1.0;"/><text fill="#000000" font-family="sans-serif" font-size="14" lengthAdjust="spacing" textLength="128" x="233.5" y="194.3726">sendnotifications()</text><ellipse cx="224.5" cy="207.3228" fill="#84BE84" rx="3" ry="3" style="stroke:#038048;stroke-width:1.0;"/><text fill="#000000" font-family="sans-serif" font-size="14" lengthAdjust="spacing" textLength="122" x="233.5" y="210.6695">managesettings()</text><ellipse cx="224.5" cy="223.6197" fill="#84BE84" rx="3" ry="3" style="stroke:#038048;stroke-width:1.0;"/><text fill="#000000" font-family="sans-serif" font-size="14" lengthAdjust="spacing" textLength="101" x="233.5" y="226.9664">viewstatistics()</text><ellipse cx="224.5" cy="239.9166" fill="#84BE84" rx="3" ry="3" style="stroke:#038048;stroke-width:1.0;"/><text fill="#000000" font-family="sans-serif" font-size="14" lengthAdjust="spacing" textLength="135" x="233.5" y="243.2632">suspendaccounts()</text><ellipse cx="224.5" cy="256.2134" fill="#84BE84" rx="3" ry="3" style="stroke:#038048;stroke-width:1.0;"/><text fill="#000000" font-family="sans-serif" font-size="14" lengthAdjust="spacing" textLength="93" x="233.5" y="259.5601">deleteusers()</text><ellipse cx="224.5" cy="272.5103" fill="#84BE84" rx="3" ry="3" style="stroke:#038048;stroke-width:1.0;"/><text fill="#000000" font-family="sans-serif" font-size="14" lengthAdjust="spacing" textLength="138" x="233.5" y="275.857">performoperations()</text><ellipse cx="224.5" cy="288.8072" fill="#84BE84" rx="3" ry="3" style="stroke:#038048;stroke-width:1.0;"/><text fill="#000000" font-family="sans-serif" font-size="14" lengthAdjust="spacing" textLength="75" x="233.5" y="292.1539">addusers()</text><ellipse cx="224.5" cy="305.1041" fill="#84BE84" rx="3" ry="3" style="stroke:#038048;stroke-width:1.0;"/><text fill="#000000" font-family="sans-serif" font-size="14" lengthAdjust="spacing" textLength="141" x="233.5" y="308.4507">reactivateaccounts()</text><ellipse cx="224.5" cy="321.4009" fill="#84BE84" rx="3" ry="3" style="stroke:#038048;stroke-width:1.0;"/><text fill="#000000" font-family="sans-serif" font-size="14" lengthAdjust="spacing" textLength="111" x="233.5" y="324.7476">scheduletasks()</text><ellipse cx="224.5" cy="337.6978" fill="#84BE84" rx="3" ry="3" style="stroke:#038048;stroke-width:1.0;"/><text fill="#000000" font-family="sans-serif" font-size="14" lengthAdjust="spacing" textLength="123" x="233.5" y="341.0445">generatereports()</text><ellipse cx="224.5" cy="353.9947" fill="#84BE84" rx="3" ry="3" style="stroke:#038048;stroke-width:1.0;"/><text fill="#000000" font-family="sans-serif" font-size="14" lengthAdjust="spacing" textLength="113" x="233.5" y="357.3414">resetpassword()</text></g><!--class user--><g id="elem_user"><rect codeLine="26" fill="#F1F1F1" height="422.8281" id="user" rx="2.5" ry="2.5" style="stroke:#181818;stroke-width:0.5;" width="168" x="415" y="7"/><ellipse cx="479.25" cy="23" fill="#ADD1B2" rx="11" ry="11" style="stroke:#181818;stroke-width:1.0;"/><path d="M482.2188,28.6406 Q481.6406,28.9375 481,29.0781 Q480.3594,29.2344 479.6563,29.2344 Q477.1563,29.2344 475.8281,27.5938 Q474.5156,25.9375 474.5156,22.8125 Q474.5156,19.6875 475.8281,18.0313 Q477.1563,16.375 479.6563,16.375 Q480.3594,16.375 481,16.5313 Q481.6563,16.6875 482.2188,16.9844 L482.2188,19.7031 Q481.5938,19.125 481,18.8594 Q480.4063,18.5781 479.7813,18.5781 Q478.4375,18.5781 477.75,19.6563 Q477.0625,20.7188 477.0625,22.8125 Q477.0625,24.9063 477.75,25.9844 Q478.4375,27.0469 479.7813,27.0469 Q480.4063,27.0469 481,26.7813 Q481.5938,26.5 482.2188,25.9219 L482.2188,28.6406 Z " fill="#000000"/><text fill="#000000" font-family="sans-serif" font-size="14" lengthAdjust="spacing" textLength="31" x="499.75" y="27.8467">user</text><line style="stroke:#181818;stroke-width:0.5;" x1="416" x2="582" y1="39" y2="39"/><rect fill="none" height="6" style="stroke:#C82930;stroke-width:1.0;" width="6" x="423" y="49.6484"/><text fill="#000000" font-family="sans-serif" font-size="14" lengthAdjust="spacing" textLength="91" x="435" y="55.9951">profile: String</text><rect fill="none" height="6" style="stroke:#C82930;stroke-width:1.0;" width="6" x="423" y="65.9453"/><text fill="#000000" font-family="sans-serif" font-size="14" lengthAdjust="spacing" textLength="103" x="435" y="72.292">content: String</text><rect fill="none" height="6" style="stroke:#C82930;stroke-width:1.0;" width="6" x="423" y="82.2422"/><text fill="#000000" font-family="sans-serif" font-size="14" lengthAdjust="spacing" textLength="119" x="435" y="88.5889">username: String</text><rect fill="none" height="6" style="stroke:#C82930;stroke-width:1.0;" width="6" x="423" y="98.5391"/><text fill="#000000" font-family="sans-serif" font-size="14" lengthAdjust="spacing" textLength="99" x="435" y="104.8857">favorite: String</text><rect fill="none" height="6" style="stroke:#C82930;stroke-width:1.0;" width="6" x="423" y="114.8359"/><text fill="#000000" font-family="sans-serif" font-size="14" lengthAdjust="spacing" textLength="80" x="435" y="121.1826">user: String</text><rect fill="none" height="6" style="stroke:#C82930;stroke-width:1.0;" width="6" x="423" y="131.1328"/><text fill="#000000" font-family="sans-serif" font-size="14" lengthAdjust="spacing" textLength="85" x="435" y="137.4795">email: String</text><rect fill="none" height="6" style="stroke:#C82930;stroke-width:1.0;" width="6" x="423" y="147.4297"/><text fill="#000000" font-family="sans-serif" font-size="14" lengthAdjust="spacing" textLength="116" x="435" y="153.7764">password: String</text><rect fill="none" height="6" style="stroke:#C82930;stroke-width:1.0;" width="6" x="423" y="163.7266"/><text fill="#000000" font-family="sans-serif" font-size="14" lengthAdjust="spacing" textLength="95" x="435" y="170.0732">activity: String</text><line style="stroke:#181818;stroke-width:0.5;" x1="416" x2="582" y1="177.375" y2="177.375"/><ellipse cx="426" cy="191.0234" fill="#84BE84" rx="3" ry="3" style="stroke:#038048;stroke-width:1.0;"/><text fill="#000000" font-family="sans-serif" font-size="14" lengthAdjust="spacing" textLength="142" x="435" y="194.3701">customizeinterface()</text><ellipse cx="426" cy="207.3203" fill="#84BE84" rx="3" ry="3" style="stroke:#038048;stroke-width:1.0;"/><text fill="#000000" font-family="sans-serif" font-size="14" lengthAdjust="spacing" textLength="118" x="435" y="210.667">requestsupport()</text><ellipse cx="426" cy="223.6172" fill="#84BE84" rx="3" ry="3" style="stroke:#038048;stroke-width:1.0;"/><text fill="#000000" font-family="sans-serif" font-size="14" lengthAdjust="spacing" textLength="84" x="435" y="226.9639">uploadfiles()</text><ellipse cx="426" cy="239.9141" fill="#84BE84" rx="3" ry="3" style="stroke:#038048;stroke-width:1.0;"/><text fill="#000000" font-family="sans-serif" font-size="14" lengthAdjust="spacing" textLength="39" x="435" y="243.2607">logs()</text><ellipse cx="426" cy="256.2109" fill="#84BE84" rx="3" ry="3" style="stroke:#038048;stroke-width:1.0;"/><text fill="#000000" font-family="sans-serif" font-size="14" lengthAdjust="spacing" textLength="86" x="435" y="259.5576">viewhistory()</text><ellipse cx="426" cy="272.5078" fill="#84BE84" rx="3" ry="3" style="stroke:#038048;stroke-width:1.0;"/><text fill="#000000" font-family="sans-serif" font-size="14" lengthAdjust="spacing" textLength="54" x="435" y="275.8545">import()</text><ellipse cx="426" cy="288.8047" fill="#84BE84" rx="3" ry="3" style="stroke:#038048;stroke-width:1.0;"/><text fill="#000000" font-family="sans-serif" font-size="14" lengthAdjust="spacing" textLength="57" x="435" y="292.1514">search()</text><ellipse cx="426" cy="305.1016" fill="#84BE84" rx="3" ry="3" style="stroke:#038048;stroke-width:1.0;"/><text fill="#000000" font-family="sans-serif" font-size="14" lengthAdjust="spacing" textLength="107" x="435" y="308.4482">updatepicture()</text><ellipse cx="426" cy="321.3984" fill="#84BE84" rx="3" ry="3" style="stroke:#038048;stroke-width:1.0;"/><text fill="#000000" font-family="sans-serif" font-size="14" lengthAdjust="spacing" textLength="129" x="435" y="324.7451">changepassword()</text><ellipse cx="426" cy="337.6953" fill="#84BE84" rx="3" ry="3" style="stroke:#038048;stroke-width:1.0;"/><text fill="#000000" font-family="sans-serif" font-size="14" lengthAdjust="spacing" textLength="50" x="435" y="341.042">opt-in()</text><ellipse cx="426" cy="353.9922" fill="#84BE84" rx="3" ry="3" style="stroke:#038048;stroke-width:1.0;"/><text fill="#000000" font-family="sans-serif" font-size="14" lengthAdjust="spacing" textLength="117" x="435" y="357.3389">sendmessages()</text><ellipse cx="426" cy="370.2891" fill="#84BE84" rx="3" ry="3" style="stroke:#038048;stroke-width:1.0;"/><text fill="#000000" font-family="sans-serif" font-size="14" lengthAdjust="spacing" textLength="129" x="435" y="373.6357">recoverpassword()</text><ellipse cx="426" cy="386.5859" fill="#84BE84" rx="3" ry="3" style="stroke:#038048;stroke-width:1.0;"/><text fill="#000000" font-family="sans-serif" font-size="14" lengthAdjust="spacing" textLength="103" x="435" y="389.9326">sharecontent()</text><ellipse cx="426" cy="402.8828" fill="#84BE84" rx="3" ry="3" style="stroke:#038048;stroke-width:1.0;"/><text fill="#000000" font-family="sans-serif" font-size="14" lengthAdjust="spacing" textLength="122" x="435" y="406.2295">bookmarkpages()</text><ellipse cx="426" cy="419.1797" fill="#84BE84" rx="3" ry="3" style="stroke:#038048;stroke-width:1.0;"/><text fill="#000000" font-family="sans-serif" font-size="14" lengthAdjust="spacing" textLength="104" x="435" y="422.5264">downloadfiles()</text></g><!--class system--><g id="elem_system"><rect codeLine="52" fill="#F1F1F1" height="308.75" id="system" rx="2.5" ry="2.5" style="stroke:#181818;stroke-width:0.5;" width="194" x="7" y="489.83"/><ellipse cx="74.75" cy="505.83" fill="#ADD1B2" rx="11" ry="11" style="stroke:#181818;stroke-width:1.0;"/><path d="M77.7188,511.4706 Q77.1406,511.7675 76.5,511.9081 Q75.8594,512.0644 75.1563,512.0644 Q72.6563,512.0644 71.3281,510.4238 Q70.0156,508.7675 70.0156,505.6425 Q70.0156,502.5175 71.3281,500.8613 Q72.6563,499.205 75.1563,499.205 Q75.8594,499.205 76.5,499.3613 Q77.1563,499.5175 77.7188,499.8144 L77.7188,502.5331 Q77.0938,501.955 76.5,501.6894 Q75.9063,501.4081 75.2813,501.4081 Q73.9375,501.4081 73.25,502.4863 Q72.5625,503.5488 72.5625,505.6425 Q72.5625,507.7363 73.25,508.8144 Q73.9375,509.8769 75.2813,509.8769 Q75.9063,509.8769 76.5,509.6113 Q77.0938,509.33 77.7188,508.7519 L77.7188,511.4706 Z " fill="#000000"/><text fill="#000000" font-family="sans-serif" font-size="14" lengthAdjust="spacing" textLength="50" x="95.25" y="510.6767">system</text><line style="stroke:#181818;stroke-width:0.5;" x1="8" x2="200" y1="521.83" y2="521.83"/><rect fill="none" height="6" style="stroke:#C82930;stroke-width:1.0;" width="6" x="15" y="532.4784"/><text fill="#000000" font-family="sans-serif" font-size="14" lengthAdjust="spacing" textLength="85" x="27" y="538.8251">email: String</text><line style="stroke:#181818;stroke-width:0.5;" x1="8" x2="200" y1="546.1269" y2="546.1269"/><ellipse cx="18" cy="559.7753" fill="#84BE84" rx="3" ry="3" style="stroke:#038048;stroke-width:1.0;"/><text fill="#000000" font-family="sans-serif" font-size="14" lengthAdjust="spacing" textLength="89" x="27" y="563.122">sendsemail()</text><ellipse cx="18" cy="576.0722" fill="#84BE84" rx="3" ry="3" style="stroke:#038048;stroke-width:1.0;"/><text fill="#000000" font-family="sans-serif" font-size="14" lengthAdjust="spacing" textLength="120" x="27" y="579.4189">providessection()</text><ellipse cx="18" cy="592.3691" fill="#84BE84" rx="3" ry="3" style="stroke:#038048;stroke-width:1.0;"/><text fill="#000000" font-family="sans-serif" font-size="14" lengthAdjust="spacing" textLength="100" x="27" y="595.7157">encryptsdata()</text><ellipse cx="18" cy="608.6659" fill="#84BE84" rx="3" ry="3" style="stroke:#038048;stroke-width:1.0;"/><text fill="#000000" font-family="sans-serif" font-size="14" lengthAdjust="spacing" textLength="128" x="27" y="612.0126">sendsnotification()</text><ellipse cx="18" cy="624.9628" fill="#84BE84" rx="3" ry="3" style="stroke:#038048;stroke-width:1.0;"/><text fill="#000000" font-family="sans-serif" font-size="14" lengthAdjust="spacing" textLength="80" x="27" y="628.3095">logserrors()</text><ellipse cx="18" cy="641.2597" fill="#84BE84" rx="3" ry="3" style="stroke:#038048;stroke-width:1.0;"/><text fill="#000000" font-family="sans-serif" font-size="14" lengthAdjust="spacing" textLength="110" x="27" y="644.6064">sendsupdates()</text><ellipse cx="18" cy="657.5566" fill="#84BE84" rx="3" ry="3" style="stroke:#038048;stroke-width:1.0;"/><text fill="#000000" font-family="sans-serif" font-size="14" lengthAdjust="spacing" textLength="39" x="27" y="660.9032">logs()</text><ellipse cx="18" cy="673.8534" fill="#84BE84" rx="3" ry="3" style="stroke:#038048;stroke-width:1.0;"/><text fill="#000000" font-family="sans-serif" font-size="14" lengthAdjust="spacing" textLength="114" x="27" y="677.2001">verifiesaddress()</text><ellipse cx="18" cy="690.1503" fill="#84BE84" rx="3" ry="3" style="stroke:#038048;stroke-width:1.0;"/><text fill="#000000" font-family="sans-serif" font-size="14" lengthAdjust="spacing" textLength="90" x="27" y="693.497">providesAPI()</text><ellipse cx="18" cy="706.4472" fill="#84BE84" rx="3" ry="3" style="stroke:#038048;stroke-width:1.0;"/><text fill="#000000" font-family="sans-serif" font-size="14" lengthAdjust="spacing" textLength="84" x="27" y="709.7939">storesdata()</text><ellipse cx="18" cy="722.7441" fill="#84BE84" rx="3" ry="3" style="stroke:#038048;stroke-width:1.0;"/><text fill="#000000" font-family="sans-serif" font-size="14" lengthAdjust="spacing" textLength="97" x="27" y="726.0907">maintainslog()</text><ellipse cx="18" cy="739.0409" fill="#84BE84" rx="3" ry="3" style="stroke:#038048;stroke-width:1.0;"/><text fill="#000000" font-family="sans-serif" font-size="14" lengthAdjust="spacing" textLength="131" x="27" y="742.3876">performsbackups()</text><ellipse cx="18" cy="755.3378" fill="#84BE84" rx="3" ry="3" style="stroke:#038048;stroke-width:1.0;"/><text fill="#000000" font-family="sans-serif" font-size="14" lengthAdjust="spacing" textLength="168" x="27" y="758.6845">providesauthentication()</text><ellipse cx="18" cy="771.6347" fill="#84BE84" rx="3" ry="3" style="stroke:#038048;stroke-width:1.0;"/><text fill="#000000" font-family="sans-serif" font-size="14" lengthAdjust="spacing" textLength="151" x="27" y="774.9814">providesfunctionality()</text><ellipse cx="18" cy="787.9316" fill="#84BE84" rx="3" ry="3" style="stroke:#038048;stroke-width:1.0;"/><text fill="#000000" font-family="sans-serif" font-size="14" lengthAdjust="spacing" textLength="144" x="27" y="791.2782">supportslanguages()</text></g><!--class data--><g id="elem_data"><rect codeLine="71" fill="#F1F1F1" height="64.2969" id="data" rx="2.5" ry="2.5" style="stroke:#181818;stroke-width:0.5;" width="110" x="236" y="612.06"/><ellipse cx="272.6" cy="628.06" fill="#ADD1B2" rx="11" ry="11" style="stroke:#181818;stroke-width:1.0;"/><path d="M275.5688,633.7006 Q274.9906,633.9975 274.35,634.1381 Q273.7094,634.2944 273.0063,634.2944 Q270.5063,634.2944 269.1781,632.6538 Q267.8656,630.9975 267.8656,627.8725 Q267.8656,624.7475 269.1781,623.0913 Q270.5063,621.435 273.0063,621.435 Q273.7094,621.435 274.35,621.5913 Q275.0063,621.7475 275.5688,622.0444 L275.5688,624.7631 Q274.9438,624.185 274.35,623.9194 Q273.7563,623.6381 273.1313,623.6381 Q271.7875,623.6381 271.1,624.7163 Q270.4125,625.7788 270.4125,627.8725 Q270.4125,629.9663 271.1,631.0444 Q271.7875,632.1069 273.1313,632.1069 Q273.7563,632.1069 274.35,631.8413 Q274.9438,631.56 275.5688,630.9819 L275.5688,633.7006 Z " fill="#000000"/><text fill="#000000" font-family="sans-serif" font-size="14" lengthAdjust="spacing" textLength="30" x="291.4" y="632.9067">data</text><line style="stroke:#181818;stroke-width:0.5;" x1="237" x2="345" y1="644.06" y2="644.06"/><line style="stroke:#181818;stroke-width:0.5;" x1="237" x2="345" y1="652.06" y2="652.06"/><ellipse cx="247" cy="665.7084" fill="#84BE84" rx="3" ry="3" style="stroke:#038048;stroke-width:1.0;"/><text fill="#000000" font-family="sans-serif" font-size="14" lengthAdjust="spacing" textLength="84" x="256" y="669.0551">storesdata()</text></g><!--class support--><g id="elem_support"><rect codeLine="75" fill="#F1F1F1" height="64.2969" id="support" rx="2.5" ry="2.5" style="stroke:#181818;stroke-width:0.5;" width="144" x="381" y="612.06"/><ellipse cx="422.1" cy="628.06" fill="#ADD1B2" rx="11" ry="11" style="stroke:#181818;stroke-width:1.0;"/><path d="M425.0688,633.7006 Q424.4906,633.9975 423.85,634.1381 Q423.2094,634.2944 422.5063,634.2944 Q420.0063,634.2944 418.6781,632.6538 Q417.3656,630.9975 417.3656,627.8725 Q417.3656,624.7475 418.6781,623.0913 Q420.0063,621.435 422.5063,621.435 Q423.2094,621.435 423.85,621.5913 Q424.5063,621.7475 425.0688,622.0444 L425.0688,624.7631 Q424.4438,624.185 423.85,623.9194 Q423.2563,623.6381 422.6313,623.6381 Q421.2875,623.6381 420.6,624.7163 Q419.9125,625.7788 419.9125,627.8725 Q419.9125,629.9663 420.6,631.0444 Q421.2875,632.1069 422.6313,632.1069 Q423.2563,632.1069 423.85,631.8413 Q424.4438,631.56 425.0688,630.9819 L425.0688,633.7006 Z " fill="#000000"/><text fill="#000000" font-family="sans-serif" font-size="14" lengthAdjust="spacing" textLength="54" x="441.9" y="632.9067">support</text><line style="stroke:#181818;stroke-width:0.5;" x1="382" x2="524" y1="644.06" y2="644.06"/><line style="stroke:#181818;stroke-width:0.5;" x1="382" x2="524" y1="652.06" y2="652.06"/><ellipse cx="392" cy="665.7084" fill="#84BE84" rx="3" ry="3" style="stroke:#038048;stroke-width:1.0;"/><text fill="#000000" font-family="sans-serif" font-size="14" lengthAdjust="spacing" textLength="118" x="401" y="669.0551">requestsupport()</text></g><!--class password--><g id="elem_password"><rect codeLine="79" fill="#F1F1F1" height="96.8906" id="password" rx="2.5" ry="2.5" style="stroke:#181818;stroke-width:0.5;" width="155" x="26.5" y="858.58"/><ellipse cx="66.7" cy="874.58" fill="#ADD1B2" rx="11" ry="11" style="stroke:#181818;stroke-width:1.0;"/><path d="M69.6688,880.2206 Q69.0906,880.5175 68.45,880.6581 Q67.8094,880.8144 67.1063,880.8144 Q64.6063,880.8144 63.2781,879.1738 Q61.9656,877.5175 61.9656,874.3925 Q61.9656,871.2675 63.2781,869.6113 Q64.6063,867.955 67.1063,867.955 Q67.8094,867.955 68.45,868.1113 Q69.1063,868.2675 69.6688,868.5644 L69.6688,871.2831 Q69.0438,870.705 68.45,870.4394 Q67.8563,870.1581 67.2313,870.1581 Q65.8875,870.1581 65.2,871.2363 Q64.5125,872.2988 64.5125,874.3925 Q64.5125,876.4863 65.2,877.5644 Q65.8875,878.6269 67.2313,878.6269 Q67.8563,878.6269 68.45,878.3613 Q69.0438,878.08 69.6688,877.5019 L69.6688,880.2206 Z " fill="#000000"/><text fill="#000000" font-family="sans-serif" font-size="14" lengthAdjust="spacing" textLength="67" x="86.3" y="879.4267">password</text><line style="stroke:#181818;stroke-width:0.5;" x1="27.5" x2="180.5" y1="890.58" y2="890.58"/><rect fill="none" height="6" style="stroke:#C82930;stroke-width:1.0;" width="6" x="34.5" y="901.2284"/><text fill="#000000" font-family="sans-serif" font-size="14" lengthAdjust="spacing" textLength="85" x="46.5" y="907.5751">email: String</text><rect fill="none" height="6" style="stroke:#C82930;stroke-width:1.0;" width="6" x="34.5" y="917.5253"/><text fill="#000000" font-family="sans-serif" font-size="14" lengthAdjust="spacing" textLength="116" x="46.5" y="923.872">password: String</text><line style="stroke:#181818;stroke-width:0.5;" x1="27.5" x2="180.5" y1="931.1738" y2="931.1738"/><ellipse cx="37.5" cy="944.8222" fill="#84BE84" rx="3" ry="3" style="stroke:#038048;stroke-width:1.0;"/><text fill="#000000" font-family="sans-serif" font-size="14" lengthAdjust="spacing" textLength="129" x="46.5" y="948.1689">recoverpassword()</text></g><!--SRC=[XLH1Zjim3Bpd5RwbnI8VsDkYfzuAz0LScOw5sA9AKWdIedylvKY9x7HR0xwCHgFXaDB-omGYAA-x_Q7zTZkN5ph6IApI_TfrtKjtn80CYWNzz7dtkwjCw6SV5jwXYqo3d_2r-wxim_666Ub2t3VWIvTYRt9I-AQNmHa2795fGYc8OEW3gH-y0_KKPCKKL3N12fuzNaID9-hTNI59D15mZbBGYlOueM8Iv8f4v85uffZhR4w2lczfZE3KdytxHb7SY7qoLP1JnPvJkqcOxnhAAibyq3-2T1GKWwwml2N0l2OES2RsYa_C5O0p-Eb_dJfqIxrUhwlskIHAi_-9tYpn00xlnVr8A2efvf8BcE94qETwQWOJhResMik8hmNnSxDN4DYDTw4yDT4xJLnFT2E48pPvPf2Y7dneXcX6aJmnTvkEpiYRNJ92NbXIBj0xqMa6FiLcSq-Nq1RqQA1SHN4kBTpcUpCY2ro7ZkdiUxE6BizSGJ4ulaOLgnMQ4gIz24sEo4pSNXWfb-ilMIER0eeDjKsXR5oyVVjQLQmRs9vldeFQBoQslZ3o3kwKubOBaewMujfjNHnIMEg5oURgVa-NYP79kfbAs8zWivNo5AsyDT7VzXVIqnW-YBNd7tJfW_VgUM2oulvDX9o_FHZRb_GF]--></g></svg>