<?xml version="1.0" encoding="us-ascii" standalone="no"?><svg xmlns="http://www.w3.org/2000/svg" xmlns:xlink="http://www.w3.org/1999/xlink" contentStyleType="text/css" height="284px" preserveAspectRatio="none" style="width:512px;height:284px;background:#FFFFFF;" version="1.1" viewBox="0 0 512 284" width="512px" zoomAndPan="magnify"><defs/><g><!--class admin--><g id="elem_admin"><rect codeLine="4" fill="#F1F1F1" height="80.5938" id="admin" rx="2.5" ry="2.5" style="stroke:#181818;stroke-width:0.5;" width="119" x="7" y="15.15"/><ellipse cx="42.25" cy="31.15" fill="#ADD1B2" rx="11" ry="11" style="stroke:#181818;stroke-width:1.0;"/><path d="M45.2188,36.7906 Q44.6406,37.0875 44,37.2281 Q43.3594,37.3844 42.6563,37.3844 Q40.1563,37.3844 38.8281,35.7437 Q37.5156,34.0875 37.5156,30.9625 Q37.5156,27.8375 38.8281,26.1812 Q40.1563,24.525 42.6563,24.525 Q43.3594,24.525 44,24.6812 Q44.6563,24.8375 45.2188,25.1344 L45.2188,27.8531 Q44.5938,27.275 44,27.0094 Q43.4063,26.7281 42.7813,26.7281 Q41.4375,26.7281 40.75,27.8062 Q40.0625,28.8687 40.0625,30.9625 Q40.0625,33.0562 40.75,34.1344 Q41.4375,35.1969 42.7813,35.1969 Q43.4063,35.1969 44,34.9312 Q44.5938,34.65 45.2188,34.0719 L45.2188,36.7906 Z " fill="#000000"/><text fill="#000000" font-family="sans-serif" font-size="14" lengthAdjust="spacing" textLength="42" x="60.75" y="35.9967">admin</text><line style="stroke:#181818;stroke-width:0.5;" x1="8" x2="125" y1="47.15" y2="47.15"/><line style="stroke:#181818;stroke-width:0.5;" x1="8" x2="125" y1="55.15" y2="55.15"/><ellipse cx="18" cy="68.7984" fill="#84BE84" rx="3" ry="3" style="stroke:#038048;stroke-width:1.0;"/><text fill="#000000" font-family="sans-serif" font-size="14" lengthAdjust="spacing" textLength="93" x="27" y="72.1451">deleteusers()</text><ellipse cx="18" cy="85.0953" fill="#84BE84" rx="3" ry="3" style="stroke:#038048;stroke-width:1.0;"/><text fill="#000000" font-family="sans-serif" font-size="14" lengthAdjust="spacing" textLength="75" x="27" y="88.442">addusers()</text></g><!--class password--><g id="elem_password"><rect codeLine="9" fill="#F1F1F1" height="96.8906" id="password" rx="2.5" ry="2.5" style="stroke:#181818;stroke-width:0.5;" width="155" x="161" y="7"/><ellipse cx="201.2" cy="23" fill="#ADD1B2" rx="11" ry="11" style="stroke:#181818;stroke-width:1.0;"/><path d="M204.1688,28.6406 Q203.5906,28.9375 202.95,29.0781 Q202.3094,29.2344 201.6063,29.2344 Q199.1063,29.2344 197.7781,27.5938 Q196.4656,25.9375 196.4656,22.8125 Q196.4656,19.6875 197.7781,18.0313 Q199.1063,16.375 201.6063,16.375 Q202.3094,16.375 202.95,16.5313 Q203.6063,16.6875 204.1688,16.9844 L204.1688,19.7031 Q203.5438,19.125 202.95,18.8594 Q202.3563,18.5781 201.7313,18.5781 Q200.3875,18.5781 199.7,19.6563 Q199.0125,20.7188 199.0125,22.8125 Q199.0125,24.9063 199.7,25.9844 Q200.3875,27.0469 201.7313,27.0469 Q202.3563,27.0469 202.95,26.7813 Q203.5438,26.5 204.1688,25.9219 L204.1688,28.6406 Z " fill="#000000"/><text fill="#000000" font-family="sans-serif" font-size="14" lengthAdjust="spacing" textLength="67" x="220.8" y="27.8467">password</text><line style="stroke:#181818;stroke-width:0.5;" x1="162" x2="315" y1="39" y2="39"/><rect fill="none" height="6" style="stroke:#C82930;stroke-width:1.0;" width="6" x="169" y="49.6484"/><text fill="#000000" font-family="sans-serif" font-size="14" lengthAdjust="spacing" textLength="85" x="181" y="55.9951">email: String</text><rect fill="none" height="6" style="stroke:#C82930;stroke-width:1.0;" width="6" x="169" y="65.9453"/><text fill="#000000" font-family="sans-serif" font-size="14" lengthAdjust="spacing" textLength="116" x="181" y="72.292">password: String</text><line style="stroke:#181818;stroke-width:0.5;" x1="162" x2="315" y1="79.5938" y2="79.5938"/><ellipse cx="172" cy="93.2422" fill="#84BE84" rx="3" ry="3" style="stroke:#038048;stroke-width:1.0;"/><text fill="#000000" font-family="sans-serif" font-size="14" lengthAdjust="spacing" textLength="129" x="181" y="96.5889">recoverpassword()</text></g><!--class system--><g id="elem_system"><rect codeLine="15" fill="#F1F1F1" height="96.8906" id="system" rx="2.5" ry="2.5" style="stroke:#181818;stroke-width:0.5;" width="154" x="351.5" y="7"/><ellipse cx="399.25" cy="23" fill="#ADD1B2" rx="11" ry="11" style="stroke:#181818;stroke-width:1.0;"/><path d="M402.2188,28.6406 Q401.6406,28.9375 401,29.0781 Q400.3594,29.2344 399.6563,29.2344 Q397.1563,29.2344 395.8281,27.5938 Q394.5156,25.9375 394.5156,22.8125 Q394.5156,19.6875 395.8281,18.0313 Q397.1563,16.375 399.6563,16.375 Q400.3594,16.375 401,16.5313 Q401.6563,16.6875 402.2188,16.9844 L402.2188,19.7031 Q401.5938,19.125 401,18.8594 Q400.4063,18.5781 399.7813,18.5781 Q398.4375,18.5781 397.75,19.6563 Q397.0625,20.7188 397.0625,22.8125 Q397.0625,24.9063 397.75,25.9844 Q398.4375,27.0469 399.7813,27.0469 Q400.4063,27.0469 401,26.7813 Q401.5938,26.5 402.2188,25.9219 L402.2188,28.6406 Z " fill="#000000"/><text fill="#000000" font-family="sans-serif" font-size="14" lengthAdjust="spacing" textLength="50" x="419.75" y="27.8467">system</text><line style="stroke:#181818;stroke-width:0.5;" x1="352.5" x2="504.5" y1="39" y2="39"/><line style="stroke:#181818;stroke-width:0.5;" x1="352.5" x2="504.5" y1="47" y2="47"/><ellipse cx="362.5" cy="60.6484" fill="#84BE84" rx="3" ry="3" style="stroke:#038048;stroke-width:1.0;"/><text fill="#000000" font-family="sans-serif" font-size="14" lengthAdjust="spacing" textLength="84" x="371.5" y="63.9951">storesdata()</text><ellipse cx="362.5" cy="76.9453" fill="#84BE84" rx="3" ry="3" style="stroke:#038048;stroke-width:1.0;"/><text fill="#000000" font-family="sans-serif" font-size="14" lengthAdjust="spacing" textLength="128" x="371.5" y="80.292">sendsnotification()</text><ellipse cx="362.5" cy="93.2422" fill="#84BE84" rx="3" ry="3" style="stroke:#038048;stroke-width:1.0;"/><text fill="#000000" font-family="sans-serif" font-size="14" lengthAdjust="spacing" textLength="39" x="371.5" y="96.5889">logs()</text></g><!--class data--><g id="elem_data"><rect codeLine="21" fill="#F1F1F1" height="64.2969" id="data" rx="2.5" ry="2.5" style="stroke:#181818;stroke-width:0.5;" width="110" x="11.5" y="188.34"/><ellipse cx="48.1" cy="204.34" fill="#ADD1B2" rx="11" ry="11" style="stroke:#181818;stroke-width:1.0;"/><path d="M51.0688,209.9806 Q50.4906,210.2775 49.85,210.4181 Q49.2094,210.5744 48.5063,210.5744 Q46.0063,210.5744 44.6781,208.9337 Q43.3656,207.2775 43.3656,204.1525 Q43.3656,201.0275 44.6781,199.3712 Q46.0063,197.715 48.5063,197.715 Q49.2094,197.715 49.85,197.8712 Q50.5063,198.0275 51.0688,198.3244 L51.0688,201.0431 Q50.4438,200.465 49.85,200.1994 Q49.2563,199.9181 48.6313,199.9181 Q47.2875,199.9181 46.6,200.9962 Q45.9125,202.0587 45.9125,204.1525 Q45.9125,206.2462 46.6,207.3244 Q47.2875,208.3869 48.6313,208.3869 Q49.2563,208.3869 49.85,208.1212 Q50.4438,207.84 51.0688,207.2619 L51.0688,209.9806 Z " fill="#000000"/><text fill="#000000" font-family="sans-serif" font-size="14" lengthAdjust="spacing" textLength="30" x="66.9" y="209.1867">data</text><line style="stroke:#181818;stroke-width:0.5;" x1="12.5" x2="120.5" y1="220.34" y2="220.34"/><line style="stroke:#181818;stroke-width:0.5;" x1="12.5" x2="120.5" y1="228.34" y2="228.34"/><ellipse cx="22.5" cy="241.9884" fill="#84BE84" rx="3" ry="3" style="stroke:#038048;stroke-width:1.0;"/><text fill="#000000" font-family="sans-serif" font-size="14" lengthAdjust="spacing" textLength="84" x="31.5" y="245.3351">storesdata()</text></g><!--class user--><g id="elem_user"><rect codeLine="25" fill="#F1F1F1" height="113.1875" id="user" rx="2.5" ry="2.5" style="stroke:#181818;stroke-width:0.5;" width="155" x="157" y="163.89"/><ellipse cx="214.75" cy="179.89" fill="#ADD1B2" rx="11" ry="11" style="stroke:#181818;stroke-width:1.0;"/><path d="M217.7188,185.5306 Q217.1406,185.8275 216.5,185.9681 Q215.8594,186.1244 215.1563,186.1244 Q212.6563,186.1244 211.3281,184.4838 Q210.0156,182.8275 210.0156,179.7025 Q210.0156,176.5775 211.3281,174.9213 Q212.6563,173.265 215.1563,173.265 Q215.8594,173.265 216.5,173.4213 Q217.1563,173.5775 217.7188,173.8744 L217.7188,176.5931 Q217.0938,176.015 216.5,175.7494 Q215.9063,175.4681 215.2813,175.4681 Q213.9375,175.4681 213.25,176.5463 Q212.5625,177.6088 212.5625,179.7025 Q212.5625,181.7963 213.25,182.8744 Q213.9375,183.9369 215.2813,183.9369 Q215.9063,183.9369 216.5,183.6713 Q217.0938,183.39 217.7188,182.8119 L217.7188,185.5306 Z " fill="#000000"/><text fill="#000000" font-family="sans-serif" font-size="14" lengthAdjust="spacing" textLength="31" x="235.25" y="184.7367">user</text><line style="stroke:#181818;stroke-width:0.5;" x1="158" x2="311" y1="195.89" y2="195.89"/><rect fill="none" height="6" style="stroke:#C82930;stroke-width:1.0;" width="6" x="165" y="206.5384"/><text fill="#000000" font-family="sans-serif" font-size="14" lengthAdjust="spacing" textLength="85" x="177" y="212.8851">email: String</text><rect fill="none" height="6" style="stroke:#C82930;stroke-width:1.0;" width="6" x="165" y="222.8353"/><text fill="#000000" font-family="sans-serif" font-size="14" lengthAdjust="spacing" textLength="116" x="177" y="229.182">password: String</text><line style="stroke:#181818;stroke-width:0.5;" x1="158" x2="311" y1="236.4838" y2="236.4838"/><ellipse cx="168" cy="250.1322" fill="#84BE84" rx="3" ry="3" style="stroke:#038048;stroke-width:1.0;"/><text fill="#000000" font-family="sans-serif" font-size="14" lengthAdjust="spacing" textLength="129" x="177" y="253.4789">recoverpassword()</text><ellipse cx="168" cy="266.4291" fill="#84BE84" rx="3" ry="3" style="stroke:#038048;stroke-width:1.0;"/><text fill="#000000" font-family="sans-serif" font-size="14" lengthAdjust="spacing" textLength="129" x="177" y="269.7757">changepassword()</text></g><!--SRC=[fP312i8m38RlVOhSfeozm6xY8_W4eOcpqBNIH4M6xwujAsxgpHuA_P8_V6cpzoZ2qfkcMnvZR2u0qkW2J0QW1MBFoXVX99jj8KXKdm-eaVFhkiL49TK1Z-Xy3mTDBWo5r8O5R26nZLTEjRQQA7TH7cSBqPXO21Ld2U504gAwexEeBeQP-pYinNBcrv1tHrxcN-rCxGd3m1-xD3kHQ5rH_Fhl9m00]--></g></svg>