<?xml version="1.0" encoding="us-ascii" standalone="no"?><svg xmlns="http://www.w3.org/2000/svg" xmlns:xlink="http://www.w3.org/1999/xlink" contentStyleType="text/css" height="201px" preserveAspectRatio="none" style="width:1198px;height:201px;background:#FFFFFF;" version="1.1" viewBox="0 0 1198 201" width="1198px" zoomAndPan="magnify"><defs/><g><g id="cluster_##7"><rect fill="none" height="69.55" rx="2.5" ry="2.5" style="stroke:#181818;stroke-width:1.0;" width="1185" x="7" y="125.79"/></g><g id="elem_stores data"><ellipse cx="712.9953" cy="160.5671" fill="#F1F1F1" rx="64.7353" ry="15.3471" style="stroke:#181818;stroke-width:0.5;"/><text fill="#000000" font-family="sans-serif" font-size="14" lengthAdjust="spacing" textLength="78" x="670.9953" y="164.3146">stores data</text></g><g id="elem_sends notification"><ellipse cx="432.9955" cy="160.5691" fill="#F1F1F1" rx="81.4455" ry="18.6891" style="stroke:#181818;stroke-width:0.5;"/><text fill="#000000" font-family="sans-serif" font-size="14" lengthAdjust="spacing" textLength="122" x="370.8609" y="163.789">sends notification</text></g><g id="elem_change password"><ellipse cx="1093.9958" cy="160.5732" fill="#F1F1F1" rx="81.8658" ry="18.7732" style="stroke:#181818;stroke-width:0.5;"/><text fill="#000000" font-family="sans-serif" font-size="14" lengthAdjust="spacing" textLength="123" x="1031.5105" y="163.7463">change password</text></g><g id="elem_add users"><ellipse cx="254.9997" cy="160.572" fill="#F1F1F1" rx="61.5597" ry="14.782" style="stroke:#181818;stroke-width:0.5;"/><text fill="#000000" font-family="sans-serif" font-size="14" lengthAdjust="spacing" textLength="69" x="217.4997" y="164.3195">add users</text></g><g id="elem_logs"><ellipse cx="581.0014" cy="160.5736" fill="#F1F1F1" rx="31.9914" ry="14.5236" style="stroke:#181818;stroke-width:0.5;"/><text fill="#000000" font-family="sans-serif" font-size="14" lengthAdjust="spacing" textLength="29" x="566.5014" y="163.4203">logs</text></g><g id="elem_recover password"><ellipse cx="894.9958" cy="160.5732" fill="#F1F1F1" rx="81.8658" ry="18.7732" style="stroke:#181818;stroke-width:0.5;"/><text fill="#000000" font-family="sans-serif" font-size="14" lengthAdjust="spacing" textLength="123" x="832.5105" y="163.7463">recover password</text></g><g id="elem_delete users"><ellipse cx="91.0007" cy="160.5661" fill="#F1F1F1" rx="67.8807" ry="15.9761" style="stroke:#181818;stroke-width:0.5;"/><text fill="#000000" font-family="sans-serif" font-size="14" lengthAdjust="spacing" textLength="87" x="44.5007" y="164.3137">delete users</text></g><!--entity admin--><g id="elem_admin"><ellipse cx="173" cy="14" fill="#F1F1F1" rx="8" ry="8" style="stroke:#181818;stroke-width:0.5;"/><path d="M173,22 L173,49 M160,30 L186,30 M173,49 L160,64 M173,49 L186,64 " fill="none" style="stroke:#181818;stroke-width:0.5;"/><text fill="#000000" font-family="sans-serif" font-size="14" lengthAdjust="spacing" textLength="42" x="152" y="78.4951">admin</text></g><!--entity password--><g id="elem_password"><ellipse cx="895" cy="14" fill="#F1F1F1" rx="8" ry="8" style="stroke:#181818;stroke-width:0.5;"/><path d="M895,22 L895,49 M882,30 L908,30 M895,49 L882,64 M895,49 L908,64 " fill="none" style="stroke:#181818;stroke-width:0.5;"/><text fill="#000000" font-family="sans-serif" font-size="14" lengthAdjust="spacing" textLength="67" x="861.5" y="78.4951">password</text></g><!--entity system--><g id="elem_system"><ellipse cx="581" cy="14" fill="#F1F1F1" rx="8" ry="8" style="stroke:#181818;stroke-width:0.5;"/><path d="M581,22 L581,49 M568,30 L594,30 M581,49 L568,64 M581,49 L594,64 " fill="none" style="stroke:#181818;stroke-width:0.5;"/><text fill="#000000" font-family="sans-serif" font-size="14" lengthAdjust="spacing" textLength="50" x="556" y="78.4951">system</text></g><!--entity data--><g id="elem_data"><ellipse cx="713" cy="14" fill="#F1F1F1" rx="8" ry="8" style="stroke:#181818;stroke-width:0.5;"/><path d="M713,22 L713,49 M700,30 L726,30 M713,49 L700,64 M713,49 L726,64 " fill="none" style="stroke:#181818;stroke-width:0.5;"/><text fill="#000000" font-family="sans-serif" font-size="14" lengthAdjust="spacing" textLength="30" x="698" y="78.4951">data</text></g><!--entity user--><g id="elem_user"><ellipse cx="1036" cy="14" fill="#F1F1F1" rx="8" ry="8" style="stroke:#181818;stroke-width:0.5;"/><path d="M1036,22 L1036,49 M1023,30 L1049,30 M1036,49 L1023,64 M1036,49 L1049,64 " fill="none" style="stroke:#181818;stroke-width:0.5;"/><text fill="#000000" font-family="sans-serif" font-size="14" lengthAdjust="spacing" textLength="31" x="1020.5" y="78.4951">user</text></g><!--link system to logs--><g id="link_system_logs"><path d="M581,82.27 C581,104.01 581,124.05 581,139.68 " fill="none" id="system-to-logs" style="stroke:#181818;stroke-width:1.0;"/><polygon fill="#181818" points="581,145.68,585,136.68,581,140.68,577,136.68,581,145.68" style="stroke:#181818;stroke-width:1.0;"/></g><!--link data to stores data--><g id="link_data_stores data"><path d="M713,82.27 C713,103.62 713,123.11 713,138.83 " fill="none" id="data-to-stores data" style="stroke:#181818;stroke-width:1.0;"/><polygon fill="#181818" points="713,144.83,717,135.83,713,139.83,709,135.83,713,144.83" style="stroke:#181818;stroke-width:1.0;"/></g><!--link system to sends notification--><g id="link_system_sends notification"><path d="M555.56,64.4 C527.29,86.35 486.8391,117.7601 459.9491,138.6401 " fill="none" id="system-to-sends notification" style="stroke:#181818;stroke-width:1.0;"/><polygon fill="#181818" points="455.21,142.32,464.7718,139.9596,459.1592,139.2534,459.8653,133.6408,455.21,142.32" style="stroke:#181818;stroke-width:1.0;"/></g><!--link admin to delete users--><g id="link_admin_delete users"><path d="M151.67,74.54 C135.63,97.02 117.8151,121.9859 105.1851,139.6859 " fill="none" id="admin-to-delete users" style="stroke:#181818;stroke-width:1.0;"/><polygon fill="#181818" points="101.7,144.57,110.1837,139.5673,104.6042,140.4999,103.6716,134.9205,101.7,144.57" style="stroke:#181818;stroke-width:1.0;"/></g><!--link user to change password--><g id="link_user_change password"><path d="M1051.85,76.05 C1062.45,97.05 1073.3159,118.5839 1082.1559,136.0939 " fill="none" id="user-to-change password" style="stroke:#181818;stroke-width:1.0;"/><polygon fill="#181818" points="1084.86,141.45,1084.3747,131.6131,1082.6066,136.9866,1077.2332,135.2185,1084.86,141.45" style="stroke:#181818;stroke-width:1.0;"/></g><!--link system to stores data--><g id="link_system_stores data"><path d="M606.45,66.8 C633.12,90.02 669.6956,121.8592 692.2556,141.5092 " fill="none" id="system-to-stores data" style="stroke:#181818;stroke-width:1.0;"/><polygon fill="#181818" points="696.78,145.45,692.6206,136.5225,693.0097,142.166,687.3662,142.5551,696.78,145.45" style="stroke:#181818;stroke-width:1.0;"/></g><!--link password to recover password--><g id="link_password_recover password"><path d="M895,82.27 C895,102.17 895,119.69 895,135.52 " fill="none" id="password-to-recover password" style="stroke:#181818;stroke-width:1.0;"/><polygon fill="#181818" points="895,141.52,899,132.52,895,136.52,891,132.52,895,141.52" style="stroke:#181818;stroke-width:1.0;"/></g><!--link user to recover password--><g id="link_user_recover password"><path d="M1020.1,57.6 C994.75,78.27 949.781,114.9195 921.241,138.1795 " fill="none" id="user-to-recover password" style="stroke:#181818;stroke-width:1.0;"/><polygon fill="#181818" points="916.59,141.97,926.0935,139.3848,920.4658,138.8112,921.0395,133.1835,916.59,141.97" style="stroke:#181818;stroke-width:1.0;"/></g><!--link admin to add users--><g id="link_admin_add users"><path d="M194.33,74.54 C210.65,97.42 228.9449,123.0559 241.4749,140.6159 " fill="none" id="admin-to-add users" style="stroke:#181818;stroke-width:1.0;"/><polygon fill="#181818" points="244.96,145.5,242.9885,135.8505,242.0558,141.4299,236.4763,140.4972,244.96,145.5" style="stroke:#181818;stroke-width:1.0;"/></g><!--SRC=[RL113i8m3Blt5TNk-m9_YPemAcqjQW888VvErvQHijrYExATW9EOBE3YWu4oNu7v4HCso4yMMXf046ZZZIcPH4uWJ3FPbyc40oOxS9Q9o-vW5Kq1sOOe_kmTY8z1g-wIVMWBrn8WbZJMv1od3kScyKxfq01f9g7Dervan_7KRCnQjMBTlLiyQ6_ArwhSHQp9gVB_P_MUEkoxKgNTESfphwaYlsUPzmS0]--></g></svg>