<?xml version="1.0" encoding="us-ascii" standalone="no"?><svg xmlns="http://www.w3.org/2000/svg" xmlns:xlink="http://www.w3.org/1999/xlink" contentStyleType="text/css" height="208px" preserveAspectRatio="none" style="width:7595px;height:208px;background:#FFFFFF;" version="1.1" viewBox="0 0 7595 208" width="7595px" zoomAndPan="magnify"><defs/><g><g id="cluster_##9"><rect fill="none" height="76.43" rx="2.5" ry="2.5" style="stroke:#181818;stroke-width:1.0;" width="7582" x="7" y="125.79"/></g><g id="elem_manage roles"><ellipse cx="5435.0033" cy="164.0067" fill="#F1F1F1" rx="70.4333" ry="16.4867" style="stroke:#181818;stroke-width:0.5;"/><text fill="#000000" font-family="sans-serif" font-size="14" lengthAdjust="spacing" textLength="94" x="5385.0033" y="167.7542">manage roles</text></g><g id="elem_send messages"><ellipse cx="4545.9963" cy="164.0113" fill="#F1F1F1" rx="76.9563" ry="17.7913" style="stroke:#181818;stroke-width:0.5;"/><text fill="#000000" font-family="sans-serif" font-size="14" lengthAdjust="spacing" textLength="111" x="4487.6075" y="167.7301">send messages</text></g><g id="elem_provides API"><ellipse cx="856.0042" cy="164.0128" fill="#F1F1F1" rx="66.8142" ry="15.7628" style="stroke:#181818;stroke-width:0.5;"/><text fill="#000000" font-family="sans-serif" font-size="14" lengthAdjust="spacing" textLength="84" x="811.0042" y="167.7604">provides API</text></g><g id="elem_performs backups"><ellipse cx="2032.002" cy="164.0124" fill="#F1F1F1" rx="82.712" ry="18.9424" style="stroke:#181818;stroke-width:0.5;"/><text fill="#000000" font-family="sans-serif" font-size="14" lengthAdjust="spacing" textLength="125" x="1968.8108" y="167.0915">performs backups</text></g><g id="elem_updates profile"><ellipse cx="5614.0043" cy="164.0069" fill="#F1F1F1" rx="73.8343" ry="17.1669" style="stroke:#181818;stroke-width:0.5;"/><text fill="#000000" font-family="sans-serif" font-size="14" lengthAdjust="spacing" textLength="103" x="5559.5043" y="167.7544">updates profile</text></g><g id="elem_opt -in"><ellipse cx="4700.9991" cy="164.0113" fill="#F1F1F1" rx="42.8991" ry="14.6113" style="stroke:#181818;stroke-width:0.5;"/><text fill="#000000" font-family="sans-serif" font-size="14" lengthAdjust="spacing" textLength="44" x="4675.9991" y="167.7588">opt -in</text></g><g id="elem_provides authentication"><ellipse cx="654.9973" cy="164.0135" fill="#F1F1F1" rx="99.0673" ry="22.2135" style="stroke:#181818;stroke-width:0.5;"/><text fill="#000000" font-family="sans-serif" font-size="14" lengthAdjust="spacing" textLength="162" x="573.9973" y="166.8601">provides authentication</text></g><g id="elem_customize interface"><ellipse cx="3713.0044" cy="164.0149" fill="#F1F1F1" rx="87.4744" ry="19.8949" style="stroke:#181818;stroke-width:0.5;"/><text fill="#000000" font-family="sans-serif" font-size="14" lengthAdjust="spacing" textLength="136" x="3645.0044" y="166.8616">customize interface</text></g><g id="elem_supports languages"><ellipse cx="1046.0018" cy="164.0104" fill="#F1F1F1" rx="88.3518" ry="20.0704" style="stroke:#181818;stroke-width:0.5;"/><text fill="#000000" font-family="sans-serif" font-size="14" lengthAdjust="spacing" textLength="138" x="977.0018" y="166.857">supports languages</text></g><g id="elem_verifies address"><ellipse cx="1244.9954" cy="164.0051" fill="#F1F1F1" rx="75.7754" ry="17.5551" style="stroke:#181818;stroke-width:0.5;"/><text fill="#000000" font-family="sans-serif" font-size="14" lengthAdjust="spacing" textLength="108" x="1187.9954" y="167.7526">verifies address</text></g><g id="elem_provides section"><ellipse cx="1835.9951" cy="164.011" fill="#F1F1F1" rx="78.1551" ry="18.031" style="stroke:#181818;stroke-width:0.5;"/><text fill="#000000" font-family="sans-serif" font-size="14" lengthAdjust="spacing" textLength="114" x="1776.6059" y="167.5966">provides section</text></g><g id="elem_manage settings"><ellipse cx="5801.9952" cy="164.013" fill="#F1F1F1" rx="78.9652" ry="18.193" style="stroke:#181818;stroke-width:0.5;"/><text fill="#000000" font-family="sans-serif" font-size="14" lengthAdjust="spacing" textLength="116" x="5741.93" y="167.5086">manage settings</text></g><g id="elem_encrypts data"><ellipse cx="2220.0033" cy="164.0067" fill="#F1F1F1" rx="70.4333" ry="16.4867" style="stroke:#181818;stroke-width:0.5;"/><text fill="#000000" font-family="sans-serif" font-size="14" lengthAdjust="spacing" textLength="94" x="2170.0033" y="167.7542">encrypts data</text></g><g id="elem_perform operations"><ellipse cx="6001.998" cy="164.0056" fill="#F1F1F1" rx="85.728" ry="19.5456" style="stroke:#181818;stroke-width:0.5;"/><text fill="#000000" font-family="sans-serif" font-size="14" lengthAdjust="spacing" textLength="132" x="5935.998" y="166.8523">perform operations</text></g><g id="elem_request support"><ellipse cx="2834.0036" cy="164.0107" fill="#F1F1F1" rx="77.3536" ry="17.8707" style="stroke:#181818;stroke-width:0.5;"/><text fill="#000000" font-family="sans-serif" font-size="14" lengthAdjust="spacing" textLength="112" x="2775.2833" y="167.6854">request support</text></g><g id="elem_change password"><ellipse cx="3206.9958" cy="164.0132" fill="#F1F1F1" rx="81.8658" ry="18.7732" style="stroke:#181818;stroke-width:0.5;"/><text fill="#000000" font-family="sans-serif" font-size="14" lengthAdjust="spacing" textLength="123" x="3144.5105" y="167.1863">change password</text></g><g id="elem_schedule tasks"><ellipse cx="6196.9966" cy="164.0113" fill="#F1F1F1" rx="74.6066" ry="17.3213" style="stroke:#181818;stroke-width:0.5;"/><text fill="#000000" font-family="sans-serif" font-size="14" lengthAdjust="spacing" textLength="105" x="6141.4966" y="167.7589">schedule tasks</text></g><g id="elem_search"><ellipse cx="4388.9974" cy="164.0091" fill="#F1F1F1" rx="45.1374" ry="14.6391" style="stroke:#181818;stroke-width:0.5;"/><text fill="#000000" font-family="sans-serif" font-size="14" lengthAdjust="spacing" textLength="47" x="4362.4974" y="167.7567">search</text></g><g id="elem_recover password"><ellipse cx="5053.9958" cy="164.0132" fill="#F1F1F1" rx="81.8658" ry="18.7732" style="stroke:#181818;stroke-width:0.5;"/><text fill="#000000" font-family="sans-serif" font-size="14" lengthAdjust="spacing" textLength="123" x="4991.5105" y="167.1863">recover password</text></g><g id="elem_generate reports"><ellipse cx="5250.0035" cy="164.0147" fill="#F1F1F1" rx="79.3735" ry="18.2747" style="stroke:#181818;stroke-width:0.5;"/><text fill="#000000" font-family="sans-serif" font-size="14" lengthAdjust="spacing" textLength="117" x="5189.5976" y="167.4648">generate reports</text></g><g id="elem_sends email"><ellipse cx="2392.0026" cy="164.0125" fill="#F1F1F1" rx="66.4626" ry="15.6925" style="stroke:#181818;stroke-width:0.5;"/><text fill="#000000" font-family="sans-serif" font-size="14" lengthAdjust="spacing" textLength="83" x="2347.5026" y="167.7601">sends email</text></g><g id="elem_sends notification"><ellipse cx="103.9955" cy="164.0091" fill="#F1F1F1" rx="81.4455" ry="18.6891" style="stroke:#181818;stroke-width:0.5;"/><text fill="#000000" font-family="sans-serif" font-size="14" lengthAdjust="spacing" textLength="122" x="41.8609" y="167.229">sends notification</text></g><g id="elem_logs errors"><ellipse cx="284.0025" cy="164.0085" fill="#F1F1F1" rx="63.3925" ry="15.0785" style="stroke:#181818;stroke-width:0.5;"/><text fill="#000000" font-family="sans-serif" font-size="14" lengthAdjust="spacing" textLength="74" x="244.0025" y="167.7561">logs errors</text></g><g id="elem_stores data"><ellipse cx="2557.9953" cy="164.0071" fill="#F1F1F1" rx="64.7353" ry="15.3471" style="stroke:#181818;stroke-width:0.5;"/><text fill="#000000" font-family="sans-serif" font-size="14" lengthAdjust="spacing" textLength="78" x="2515.9953" y="167.7546">stores data</text></g><g id="elem_view statistics"><ellipse cx="6377.0049" cy="164.011" fill="#F1F1F1" rx="70.8049" ry="16.561" style="stroke:#181818;stroke-width:0.5;"/><text fill="#000000" font-family="sans-serif" font-size="14" lengthAdjust="spacing" textLength="95" x="6326.5049" y="167.7585">view statistics</text></g><g id="elem_update picture"><ellipse cx="3396.9978" cy="164.0136" fill="#F1F1F1" rx="73.0678" ry="17.0136" style="stroke:#181818;stroke-width:0.5;"/><text fill="#000000" font-family="sans-serif" font-size="14" lengthAdjust="spacing" textLength="101" x="3343.4978" y="167.7611">update picture</text></g><g id="elem_import"><ellipse cx="3547.9991" cy="164.0113" fill="#F1F1F1" rx="42.8991" ry="14.6113" style="stroke:#181818;stroke-width:0.5;"/><text fill="#000000" font-family="sans-serif" font-size="14" lengthAdjust="spacing" textLength="44" x="3522.9991" y="167.7588">import</text></g><g id="elem_suspend accounts"><ellipse cx="6566.9963" cy="164.0053" fill="#F1F1F1" rx="84.4263" ry="19.2853" style="stroke:#181818;stroke-width:0.5;"/><text fill="#000000" font-family="sans-serif" font-size="14" lengthAdjust="spacing" textLength="129" x="6502.375" y="166.8939">suspend accounts</text></g><g id="elem_upload files"><ellipse cx="3899.9953" cy="164.0071" fill="#F1F1F1" rx="64.7353" ry="15.3471" style="stroke:#181818;stroke-width:0.5;"/><text fill="#000000" font-family="sans-serif" font-size="14" lengthAdjust="spacing" textLength="78" x="3857.9953" y="167.7546">upload files</text></g><g id="elem_share content"><ellipse cx="4071.0029" cy="164.0106" fill="#F1F1F1" rx="71.5529" ry="16.7106" style="stroke:#181818;stroke-width:0.5;"/><text fill="#000000" font-family="sans-serif" font-size="14" lengthAdjust="spacing" textLength="97" x="4019.5029" y="167.7581">share content</text></g><g id="elem_view history"><ellipse cx="4243" cy="164.014" fill="#F1F1F1" rx="65.42" ry="15.484" style="stroke:#181818;stroke-width:0.5;"/><text fill="#000000" font-family="sans-serif" font-size="14" lengthAdjust="spacing" textLength="80" x="4200" y="167.7616">view history</text></g><g id="elem_reset password"><ellipse cx="6762.0044" cy="164.0069" fill="#F1F1F1" rx="75.3844" ry="17.4769" style="stroke:#181818;stroke-width:0.5;"/><text fill="#000000" font-family="sans-serif" font-size="14" lengthAdjust="spacing" textLength="107" x="6705.5044" y="167.7544">reset password</text></g><g id="elem_add users"><ellipse cx="6933.9997" cy="164.012" fill="#F1F1F1" rx="61.5597" ry="14.782" style="stroke:#181818;stroke-width:0.5;"/><text fill="#000000" font-family="sans-serif" font-size="14" lengthAdjust="spacing" textLength="69" x="6896.4997" y="167.7595">add users</text></g><g id="elem_maintains log"><ellipse cx="451.9988" cy="164.0058" fill="#F1F1F1" rx="69.3288" ry="16.2658" style="stroke:#181818;stroke-width:0.5;"/><text fill="#000000" font-family="sans-serif" font-size="14" lengthAdjust="spacing" textLength="91" x="403.4988" y="167.7533">maintains log</text></g><g id="elem_reactivate accounts"><ellipse cx="7117.9968" cy="164.0074" fill="#F1F1F1" rx="87.0368" ry="19.8074" style="stroke:#181818;stroke-width:0.5;"/><text fill="#000000" font-family="sans-serif" font-size="14" lengthAdjust="spacing" textLength="135" x="7050.4968" y="166.854">reactivate accounts</text></g><g id="elem_logs"><ellipse cx="2690.0014" cy="164.0136" fill="#F1F1F1" rx="31.9914" ry="14.5236" style="stroke:#181818;stroke-width:0.5;"/><text fill="#000000" font-family="sans-serif" font-size="14" lengthAdjust="spacing" textLength="29" x="2675.5014" y="166.8603">logs</text></g><g id="elem_bookmark pages"><ellipse cx="4857.9952" cy="164.013" fill="#F1F1F1" rx="78.9652" ry="18.193" style="stroke:#181818;stroke-width:0.5;"/><text fill="#000000" font-family="sans-serif" font-size="14" lengthAdjust="spacing" textLength="116" x="4797.93" y="167.5086">bookmark pages</text></g><g id="elem_download files"><ellipse cx="3017.9993" cy="164.0059" fill="#F1F1F1" rx="71.9293" ry="16.7859" style="stroke:#181818;stroke-width:0.5;"/><text fill="#000000" font-family="sans-serif" font-size="14" lengthAdjust="spacing" textLength="98" x="2965.9993" y="167.7534">download files</text></g><g id="elem_sends updates"><ellipse cx="1429.9998" cy="164.014" fill="#F1F1F1" rx="74.2198" ry="17.244" style="stroke:#181818;stroke-width:0.5;"/><text fill="#000000" font-family="sans-serif" font-size="14" lengthAdjust="spacing" textLength="104" x="1374.9998" y="167.7615">sends updates</text></g><g id="elem_provides functionality"><ellipse cx="1631.0031" cy="164.0086" fill="#F1F1F1" rx="91.4431" ry="20.6886" style="stroke:#181818;stroke-width:0.5;"/><text fill="#000000" font-family="sans-serif" font-size="14" lengthAdjust="spacing" textLength="145" x="1558.5031" y="166.8553">provides functionality</text></g><g id="elem_delete users"><ellipse cx="7308.0007" cy="164.0061" fill="#F1F1F1" rx="67.8807" ry="15.9761" style="stroke:#181818;stroke-width:0.5;"/><text fill="#000000" font-family="sans-serif" font-size="14" lengthAdjust="spacing" textLength="87" x="7261.5007" y="167.7537">delete users</text></g><g id="elem_send notifications"><ellipse cx="7491.9955" cy="164.0091" fill="#F1F1F1" rx="81.4455" ry="18.6891" style="stroke:#181818;stroke-width:0.5;"/><text fill="#000000" font-family="sans-serif" font-size="14" lengthAdjust="spacing" textLength="122" x="7429.8609" y="167.229">send notifications</text></g><!--entity system--><g id="elem_system"><ellipse cx="1430" cy="14" fill="#F1F1F1" rx="8" ry="8" style="stroke:#181818;stroke-width:0.5;"/><path d="M1430,22 L1430,49 M1417,30 L1443,30 M1430,49 L1417,64 M1430,49 L1443,64 " fill="none" style="stroke:#181818;stroke-width:0.5;"/><text fill="#000000" font-family="sans-serif" font-size="14" lengthAdjust="spacing" textLength="50" x="1405" y="78.4951">system</text></g><!--entity support--><g id="elem_support"><ellipse cx="2834" cy="14" fill="#F1F1F1" rx="8" ry="8" style="stroke:#181818;stroke-width:0.5;"/><path d="M2834,22 L2834,49 M2821,30 L2847,30 M2834,49 L2821,64 M2834,49 L2847,64 " fill="none" style="stroke:#181818;stroke-width:0.5;"/><text fill="#000000" font-family="sans-serif" font-size="14" lengthAdjust="spacing" textLength="54" x="2807" y="78.4951">support</text></g><!--entity user--><g id="elem_user"><ellipse cx="3900" cy="14" fill="#F1F1F1" rx="8" ry="8" style="stroke:#181818;stroke-width:0.5;"/><path d="M3900,22 L3900,49 M3887,30 L3913,30 M3900,49 L3887,64 M3900,49 L3913,64 " fill="none" style="stroke:#181818;stroke-width:0.5;"/><text fill="#000000" font-family="sans-serif" font-size="14" lengthAdjust="spacing" textLength="31" x="3884.5" y="78.4951">user</text></g><!--entity password--><g id="elem_password"><ellipse cx="5054" cy="14" fill="#F1F1F1" rx="8" ry="8" style="stroke:#181818;stroke-width:0.5;"/><path d="M5054,22 L5054,49 M5041,30 L5067,30 M5054,49 L5041,64 M5054,49 L5067,64 " fill="none" style="stroke:#181818;stroke-width:0.5;"/><text fill="#000000" font-family="sans-serif" font-size="14" lengthAdjust="spacing" textLength="67" x="5020.5" y="78.4951">password</text></g><!--entity data--><g id="elem_data"><ellipse cx="2558" cy="14" fill="#F1F1F1" rx="8" ry="8" style="stroke:#181818;stroke-width:0.5;"/><path d="M2558,22 L2558,49 M2545,30 L2571,30 M2558,49 L2545,64 M2558,49 L2571,64 " fill="none" style="stroke:#181818;stroke-width:0.5;"/><text fill="#000000" font-family="sans-serif" font-size="14" lengthAdjust="spacing" textLength="30" x="2543" y="78.4951">data</text></g><!--entity reports--><g id="elem_reports"><ellipse cx="5250" cy="14" fill="#F1F1F1" rx="8" ry="8" style="stroke:#181818;stroke-width:0.5;"/><path d="M5250,22 L5250,49 M5237,30 L5263,30 M5250,49 L5237,64 M5250,49 L5263,64 " fill="none" style="stroke:#181818;stroke-width:0.5;"/><text fill="#000000" font-family="sans-serif" font-size="14" lengthAdjust="spacing" textLength="50" x="5225" y="78.4951">reports</text></g><!--entity admin--><g id="elem_admin"><ellipse cx="6377" cy="14" fill="#F1F1F1" rx="8" ry="8" style="stroke:#181818;stroke-width:0.5;"/><path d="M6377,22 L6377,49 M6364,30 L6390,30 M6377,49 L6364,64 M6377,49 L6390,64 " fill="none" style="stroke:#181818;stroke-width:0.5;"/><text fill="#000000" font-family="sans-serif" font-size="14" lengthAdjust="spacing" textLength="42" x="6356" y="78.4951">admin</text></g><!--link system to verifies address--><g id="link_system_verifies address"><path d="M1404.66,60.85 C1369.24,83.52 1310.344,121.1963 1275.084,143.7563 " fill="none" id="system-to-verifies address" style="stroke:#181818;stroke-width:1.0;"/><polygon fill="#181818" points="1270.03,146.99,1279.7668,145.5089,1274.2417,144.2953,1275.4553,138.7701,1270.03,146.99" style="stroke:#181818;stroke-width:1.0;"/></g><!--link system to logs errors--><g id="link_system_logs errors"><path d="M1404.68,44.89 C1263.13,46.46 568.86,57.22 365,117.79 C342.15,124.58 323.6213,135.2706 307.8613,145.9206 " fill="none" id="system-to-logs errors" style="stroke:#181818;stroke-width:1.0;"/><polygon fill="#181818" points="302.89,149.28,312.5866,147.5551,307.0328,146.4805,308.1074,140.9266,302.89,149.28" style="stroke:#181818;stroke-width:1.0;"/></g><!--link system to encrypts data--><g id="link_system_encrypts data"><path d="M1455.46,46.04 C1565.56,52.24 2001.05,78.83 2132,117.79 C2155.21,124.7 2174.404,134.6248 2191.584,144.9248 " fill="none" id="system-to-encrypts data" style="stroke:#181818;stroke-width:1.0;"/><polygon fill="#181818" points="2196.73,148.01,2191.0678,139.9515,2192.4417,145.439,2186.9542,146.8129,2196.73,148.01" style="stroke:#181818;stroke-width:1.0;"/></g><!--link admin to reset password--><g id="link_admin_reset password"><path d="M6398.34,48.42 C6447.19,57.39 6570.53,81.96 6669,117.79 C6691.44,125.96 6710.3521,135.0424 6728.4521,144.5824 " fill="none" id="admin-to-reset password" style="stroke:#181818;stroke-width:1.0;"/><polygon fill="#181818" points="6733.76,147.38,6727.6633,139.645,6729.3368,145.0486,6723.9331,146.7221,6733.76,147.38" style="stroke:#181818;stroke-width:1.0;"/></g><!--link system to provides section--><g id="link_system_provides section"><path d="M1455.42,48.79 C1509.02,57.92 1637.15,81.88 1740,117.79 C1762.78,125.75 1782.0449,134.6742 1800.6349,144.1542 " fill="none" id="system-to-provides section" style="stroke:#181818;stroke-width:1.0;"/><polygon fill="#181818" points="1805.98,146.88,1799.7795,139.228,1801.5257,144.6085,1796.1452,146.3548,1805.98,146.88" style="stroke:#181818;stroke-width:1.0;"/></g><!--link user to update picture--><g id="link_user_update picture"><path d="M3884.27,45.81 C3828.76,50.28 3637.37,68.55 3488,117.79 C3465.05,125.36 3445.8415,134.8599 3428.0715,144.7599 " fill="none" id="user-to-update picture" style="stroke:#181818;stroke-width:1.0;"/><polygon fill="#181818" points="3422.83,147.68,3432.6389,146.7941,3427.1979,145.2466,3428.7454,139.8055,3422.83,147.68" style="stroke:#181818;stroke-width:1.0;"/></g><!--link admin to generate reports--><g id="link_admin_generate reports"><path d="M6355.61,45.11 C6226.27,48.05 5547.65,65.8 5347,117.79 C5322.72,124.08 5302.3498,133.4597 5283.5298,143.6197 " fill="none" id="admin-to-generate reports" style="stroke:#181818;stroke-width:1.0;"/><polygon fill="#181818" points="5278.25,146.47,5288.0698,145.7144,5282.6498,144.0948,5284.2695,138.6747,5278.25,146.47" style="stroke:#181818;stroke-width:1.0;"/></g><!--link user to view history--><g id="link_user_view history"><path d="M3915.94,47.82 C3957.25,56.33 4070.75,81.47 4160,117.79 C4181.43,126.51 4199.2789,136.2732 4215.6189,146.0332 " fill="none" id="user-to-view history" style="stroke:#181818;stroke-width:1.0;"/><polygon fill="#181818" points="4220.77,149.11,4215.0946,141.0608,4216.4774,146.546,4210.9922,147.9289,4220.77,149.11" style="stroke:#181818;stroke-width:1.0;"/></g><!--link user to change password--><g id="link_user_change password"><path d="M3884.05,44.84 C3814.21,46.04 3528.97,54.77 3306,117.79 C3282,124.58 3261.7661,133.6467 3242.6261,143.4867 " fill="none" id="user-to-change password" style="stroke:#181818;stroke-width:1.0;"/><polygon fill="#181818" points="3237.29,146.23,3247.1231,145.6724,3241.7368,143.9439,3243.4653,138.5576,3237.29,146.23" style="stroke:#181818;stroke-width:1.0;"/></g><!--link user to recover password--><g id="link_user_recover password"><path d="M3915.89,44.98 C4031.54,47.51 4745.01,65.11 4954,117.79 C4978.76,124.03 4999.6698,133.356 5019.0598,143.466 " fill="none" id="user-to-recover password" style="stroke:#181818;stroke-width:1.0;"/><polygon fill="#181818" points="5024.38,146.24,5018.249,138.5322,5019.9465,143.9283,5014.5503,145.6258,5024.38,146.24" style="stroke:#181818;stroke-width:1.0;"/></g><!--link admin to view statistics--><g id="link_admin_view statistics"><path d="M6377,82.1 C6377,104.04 6377,124.61 6377,141.17 " fill="none" id="admin-to-view statistics" style="stroke:#181818;stroke-width:1.0;"/><polygon fill="#181818" points="6377,147.17,6381,138.17,6377,142.17,6373,138.17,6377,147.17" style="stroke:#181818;stroke-width:1.0;"/></g><!--link data to stores data--><g id="link_data_stores data"><path d="M2558,82.1 C2558,104.58 2558,125.93 2558,142.37 " fill="none" id="data-to-stores data" style="stroke:#181818;stroke-width:1.0;"/><polygon fill="#181818" points="2558,148.37,2562,139.37,2558,143.37,2554,139.37,2558,148.37" style="stroke:#181818;stroke-width:1.0;"/></g><!--link system to provides authentication--><g id="link_system_provides authentication"><path d="M1404.8,45.12 C1316.51,47.27 1013.45,58.77 772,117.79 C746.62,124 724.8476,131.9865 703.0076,141.2065 " fill="none" id="system-to-provides authentication" style="stroke:#181818;stroke-width:1.0;"/><polygon fill="#181818" points="697.48,143.54,707.3271,143.7248,702.0863,141.5954,704.2157,136.3546,697.48,143.54" style="stroke:#181818;stroke-width:1.0;"/></g><!--link admin to manage settings--><g id="link_admin_manage settings"><path d="M6355.56,45.76 C6287.4,49.75 6070.14,65.97 5899,117.79 C5875.35,124.95 5855.4111,134.1077 5836.6011,143.9077 " fill="none" id="admin-to-manage settings" style="stroke:#181818;stroke-width:1.0;"/><polygon fill="#181818" points="5831.28,146.68,5841.1099,146.069,5835.7143,144.3697,5837.4135,138.9741,5831.28,146.68" style="stroke:#181818;stroke-width:1.0;"/></g><!--link system to provides functionality--><g id="link_system_provides functionality"><path d="M1455.46,59.64 C1492.01,81.16 1554.1497,117.7557 1593.9597,141.1957 " fill="none" id="system-to-provides functionality" style="stroke:#181818;stroke-width:1.0;"/><polygon fill="#181818" points="1599.13,144.24,1593.404,136.2267,1594.8214,141.7031,1589.345,143.1205,1599.13,144.24" style="stroke:#181818;stroke-width:1.0;"/></g><!--link user to download files--><g id="link_user_download files"><path d="M3884.17,45.3 C3786.2,49.5 3261.83,73.76 3108,117.79 C3084.47,124.53 3064.9361,134.3856 3047.3661,144.6856 " fill="none" id="user-to-download files" style="stroke:#181818;stroke-width:1.0;"/><polygon fill="#181818" points="3042.19,147.72,3051.9771,146.6192,3046.5035,145.1913,3047.9313,139.7176,3042.19,147.72" style="stroke:#181818;stroke-width:1.0;"/></g><!--link admin to reactivate accounts--><g id="link_admin_reactivate accounts"><path d="M6398.28,44.86 C6479.57,46.13 6777.81,55.09 7013,117.79 C7037.55,124.34 7058.3927,133.0399 7078.5027,142.7099 " fill="none" id="admin-to-reactivate accounts" style="stroke:#181818;stroke-width:1.0;"/><polygon fill="#181818" points="7083.91,145.31,7077.5324,137.8049,7079.4039,143.1432,7074.0656,145.0147,7083.91,145.31" style="stroke:#181818;stroke-width:1.0;"/></g><!--link system to sends email--><g id="link_system_sends email"><path d="M1455.26,45.36 C1581.18,49.13 2141.75,68.46 2308,117.79 C2331.02,124.62 2349.8592,134.9812 2366.2492,145.4912 " fill="none" id="system-to-sends email" style="stroke:#181818;stroke-width:1.0;"/><polygon fill="#181818" points="2371.3,148.73,2365.883,140.5046,2367.091,146.031,2361.5647,147.239,2371.3,148.73" style="stroke:#181818;stroke-width:1.0;"/></g><!--link system to maintains log--><g id="link_system_maintains log"><path d="M1404.77,45.35 C1277.72,49.12 707.35,68.56 538,117.79 C514.84,124.53 495.8145,134.6804 479.0345,145.1204 " fill="none" id="system-to-maintains log" style="stroke:#181818;stroke-width:1.0;"/><polygon fill="#181818" points="473.94,148.29,483.6948,146.9319,478.1854,145.6487,479.4686,140.1393,473.94,148.29" style="stroke:#181818;stroke-width:1.0;"/></g><!--link reports to generate reports--><g id="link_reports_generate reports"><path d="M5250,82.1 C5250,103.23 5250,122.65 5250,139.29 " fill="none" id="reports-to-generate reports" style="stroke:#181818;stroke-width:1.0;"/><polygon fill="#181818" points="5250,145.29,5254,136.29,5250,140.29,5246,136.29,5250,145.29" style="stroke:#181818;stroke-width:1.0;"/></g><!--link user to opt -in--><g id="link_user_opt -in"><path d="M3915.81,45.07 C4010.3,47.75 4500.88,64.12 4640,117.79 C4658.45,124.91 4671.8033,135.1489 4683.3533,145.7689 " fill="none" id="user-to-opt -in" style="stroke:#181818;stroke-width:1.0;"/><polygon fill="#181818" points="4687.77,149.83,4683.8523,140.7939,4684.0894,146.4458,4678.4375,146.6828,4687.77,149.83" style="stroke:#181818;stroke-width:1.0;"/></g><!--link admin to delete users--><g id="link_admin_delete users"><path d="M6398.22,45.33 C6513.1,49.21 7061.31,69.97 7223,117.79 C7246.08,124.62 7265.016,134.8678 7281.606,145.3378 " fill="none" id="admin-to-delete users" style="stroke:#181818;stroke-width:1.0;"/><polygon fill="#181818" points="7286.68,148.54,7281.2038,140.354,7282.4516,145.8715,7276.9341,147.1193,7286.68,148.54" style="stroke:#181818;stroke-width:1.0;"/></g><!--link user to bookmark pages--><g id="link_user_bookmark pages"><path d="M3915.84,45.23 C4018.65,49.16 4592.31,72.83 4761,117.79 C4785.24,124.25 4805.6038,133.6318 4824.4338,143.7418 " fill="none" id="user-to-bookmark pages" style="stroke:#181818;stroke-width:1.0;"/><polygon fill="#181818" points="4829.72,146.58,4823.6828,138.7985,4825.3148,144.2148,4819.8985,145.8468,4829.72,146.58" style="stroke:#181818;stroke-width:1.0;"/></g><!--link user to customize interface--><g id="link_user_customize interface"><path d="M3884.06,54.74 C3852.44,74.75 3786.4695,116.5007 3746.5995,141.7407 " fill="none" id="user-to-customize interface" style="stroke:#181818;stroke-width:1.0;"/><polygon fill="#181818" points="3741.53,144.95,3751.2739,143.5157,3745.7546,142.2756,3746.9948,136.7563,3741.53,144.95" style="stroke:#181818;stroke-width:1.0;"/></g><!--link admin to suspend accounts--><g id="link_admin_suspend accounts"><path d="M6398.43,57.99 C6432.88,79.45 6495.5072,118.4678 6533.7972,142.3178 " fill="none" id="admin-to-suspend accounts" style="stroke:#181818;stroke-width:1.0;"/><polygon fill="#181818" points="6538.89,145.49,6533.3656,137.3364,6534.646,142.8465,6529.1359,144.1269,6538.89,145.49" style="stroke:#181818;stroke-width:1.0;"/></g><!--link user to send messages--><g id="link_user_send messages"><path d="M3915.74,44.92 C3982.26,46.48 4246.35,56.42 4452,117.79 C4475.43,124.78 4495.0226,134.1069 4513.2826,144.0669 " fill="none" id="user-to-send messages" style="stroke:#181818;stroke-width:1.0;"/><polygon fill="#181818" points="4518.55,146.94,4512.5643,139.1187,4514.1605,144.5457,4508.7335,146.1419,4518.55,146.94" style="stroke:#181818;stroke-width:1.0;"/></g><!--link system to sends notification--><g id="link_system_sends notification"><path d="M1404.53,44.89 C1250.51,46.58 442.44,58.19 203,117.79 C178.43,123.91 157.7632,133.2036 138.5832,143.3536 " fill="none" id="system-to-sends notification" style="stroke:#181818;stroke-width:1.0;"/><polygon fill="#181818" points="133.28,146.16,143.1058,145.4858,137.6993,143.8213,139.3638,138.4149,133.28,146.16" style="stroke:#181818;stroke-width:1.0;"/></g><!--link admin to send notifications--><g id="link_admin_send notifications"><path d="M6398.1,45.14 C6525.65,48.32 7194.89,67.18 7393,117.79 C7417.53,124.06 7438.2022,133.3522 7457.3822,143.4622 " fill="none" id="admin-to-send notifications" style="stroke:#181818;stroke-width:1.0;"/><polygon fill="#181818" points="7462.69,146.26,7456.5935,138.5248,7458.2669,143.9285,7452.8632,145.6018,7462.69,146.26" style="stroke:#181818;stroke-width:1.0;"/></g><!--link admin to updates profile--><g id="link_admin_updates profile"><path d="M6355.61,44.31 C6271.18,43.55 5953.57,45.88 5706,117.79 C5682.24,124.69 5662.3773,134.4669 5644.4173,144.6669 " fill="none" id="admin-to-updates profile" style="stroke:#181818;stroke-width:1.0;"/><polygon fill="#181818" points="5639.2,147.63,5649.0013,146.6636,5643.5478,145.1608,5645.0506,139.7072,5639.2,147.63" style="stroke:#181818;stroke-width:1.0;"/></g><!--link user to upload files--><g id="link_user_upload files"><path d="M3900,82.1 C3900,104.58 3900,125.93 3900,142.37 " fill="none" id="user-to-upload files" style="stroke:#181818;stroke-width:1.0;"/><polygon fill="#181818" points="3900,148.37,3904,139.37,3900,143.37,3896,139.37,3900,148.37" style="stroke:#181818;stroke-width:1.0;"/></g><!--link system to provides API--><g id="link_system_provides API"><path d="M1404.56,45.37 C1330.8,48.12 1111.2,60.87 940,117.79 C917.53,125.27 899.0456,135.3323 882.6056,145.5523 " fill="none" id="system-to-provides API" style="stroke:#181818;stroke-width:1.0;"/><polygon fill="#181818" points="877.51,148.72,887.2653,147.3655,881.7564,146.0802,883.0416,140.5713,877.51,148.72" style="stroke:#181818;stroke-width:1.0;"/></g><!--link admin to perform operations--><g id="link_admin_perform operations"><path d="M6355.51,49.26 C6309.1,59.48 6196.34,85.67 6105,117.79 C6081.97,125.89 6062.3135,134.3363 6042.6635,143.4463 " fill="none" id="admin-to-perform operations" style="stroke:#181818;stroke-width:1.0;"/><polygon fill="#181818" points="6037.22,145.97,6047.0676,145.8135,6041.7562,143.867,6043.7027,138.5555,6037.22,145.97" style="stroke:#181818;stroke-width:1.0;"/></g><!--link admin to schedule tasks--><g id="link_admin_schedule tasks"><path d="M6355.64,58.69 C6321.84,80.92 6261.2434,120.7636 6225.9134,143.9936 " fill="none" id="admin-to-schedule tasks" style="stroke:#181818;stroke-width:1.0;"/><polygon fill="#181818" points="6220.9,147.29,6230.6176,145.6877,6225.0778,144.543,6226.2225,139.0032,6220.9,147.29" style="stroke:#181818;stroke-width:1.0;"/></g><!--link system to supports languages--><g id="link_system_supports languages"><path d="M1404.72,50 C1355.43,60.71 1243.35,86.48 1152,117.79 C1128.72,125.77 1108.8136,134.0625 1088.7236,143.0825 " fill="none" id="system-to-supports languages" style="stroke:#181818;stroke-width:1.0;"/><polygon fill="#181818" points="1083.25,145.54,1093.0988,145.5028,1087.8113,143.492,1089.8221,138.2046,1083.25,145.54" style="stroke:#181818;stroke-width:1.0;"/></g><!--link system to sends updates--><g id="link_system_sends updates"><path d="M1430,82.1 C1430,103.77 1430,123.96 1430,140.55 " fill="none" id="system-to-sends updates" style="stroke:#181818;stroke-width:1.0;"/><polygon fill="#181818" points="1430,146.55,1434,137.55,1430,141.55,1426,137.55,1430,146.55" style="stroke:#181818;stroke-width:1.0;"/></g><!--link system to performs backups--><g id="link_system_performs backups"><path d="M1455.34,45.84 C1529.87,49.87 1754.28,65.79 1932,117.79 C1955.96,124.8 1976.2218,133.7801 1995.5318,143.5101 " fill="none" id="system-to-performs backups" style="stroke:#181818;stroke-width:1.0;"/><polygon fill="#181818" points="2000.89,146.21,1994.6526,138.588,1996.4248,143.9601,1991.0527,145.7323,2000.89,146.21" style="stroke:#181818;stroke-width:1.0;"/></g><!--link user to logs--><g id="link_user_logs"><path d="M3884,45.01 C3752.29,48.07 2849.14,70.7 2739,117.79 C2722.82,124.71 2712.4042,134.7266 2703.5042,145.4866 " fill="none" id="user-to-logs" style="stroke:#181818;stroke-width:1.0;"/><polygon fill="#181818" points="2699.68,150.11,2708.4985,145.7244,2702.8668,146.2572,2702.334,140.6255,2699.68,150.11" style="stroke:#181818;stroke-width:1.0;"/></g><!--link user to request support--><g id="link_user_request support"><path d="M3884.31,45.04 C3774.53,47.91 3120.36,66.95 2929,117.79 C2904.82,124.22 2884.56,133.8153 2866.07,144.0453 " fill="none" id="user-to-request support" style="stroke:#181818;stroke-width:1.0;"/><polygon fill="#181818" points="2860.82,146.95,2870.6315,146.093,2865.195,144.5294,2866.7586,139.0929,2860.82,146.95" style="stroke:#181818;stroke-width:1.0;"/></g><!--link user to search--><g id="link_user_search"><path d="M3915.79,44.84 C3973.21,46.04 4175.43,54.8 4326,117.79 C4344.38,125.48 4358.019,135.48 4370.089,145.85 " fill="none" id="user-to-search" style="stroke:#181818;stroke-width:1.0;"/><polygon fill="#181818" points="4374.64,149.76,4370.4202,140.861,4370.8475,146.5016,4365.2068,146.929,4374.64,149.76" style="stroke:#181818;stroke-width:1.0;"/></g><!--link user to share content--><g id="link_user_share content"><path d="M3915.78,55.57 C3946.37,76.74 4008.8765,120.0053 4043.9265,144.2653 " fill="none" id="user-to-share content" style="stroke:#181818;stroke-width:1.0;"/><polygon fill="#181818" points="4048.86,147.68,4043.7362,139.2689,4044.7487,144.8344,4039.1832,145.8469,4048.86,147.68" style="stroke:#181818;stroke-width:1.0;"/></g><!--link admin to add users--><g id="link_admin_add users"><path d="M6398.16,45.14 C6466.35,47.3 6685.78,58.72 6855,117.79 C6876.93,125.45 6894.7457,135.8799 6910.1757,146.2199 " fill="none" id="admin-to-add users" style="stroke:#181818;stroke-width:1.0;"/><polygon fill="#181818" points="6915.16,149.56,6909.9102,141.2269,6911.0064,146.7766,6905.4568,147.8727,6915.16,149.56" style="stroke:#181818;stroke-width:1.0;"/></g><!--link user to import--><g id="link_user_import"><path d="M3884.05,46.38 C3838.81,51.75 3706.56,70.72 3608,117.79 C3590.58,126.11 3577.7461,135.9469 3566.2261,146.1269 " fill="none" id="user-to-import" style="stroke:#181818;stroke-width:1.0;"/><polygon fill="#181818" points="3561.73,150.1,3571.1228,147.1377,3565.4767,146.7891,3565.8254,141.143,3561.73,150.1" style="stroke:#181818;stroke-width:1.0;"/></g><!--link support to request support--><g id="link_support_request support"><path d="M2834,82.1 C2834,103.5 2834,123.3 2834,139.92 " fill="none" id="support-to-request support" style="stroke:#181818;stroke-width:1.0;"/><polygon fill="#181818" points="2834,145.92,2838,136.92,2834,140.92,2830,136.92,2834,145.92" style="stroke:#181818;stroke-width:1.0;"/></g><!--link password to recover password--><g id="link_password_recover password"><path d="M5054,82.1 C5054,103.09 5054,122.32 5054,138.97 " fill="none" id="password-to-recover password" style="stroke:#181818;stroke-width:1.0;"/><polygon fill="#181818" points="5054,144.97,5058,135.97,5054,139.97,5050,135.97,5054,144.97" style="stroke:#181818;stroke-width:1.0;"/></g><!--link system to logs--><g id="link_system_logs"><path d="M1455.33,45.17 C1619.3,48.71 2527.1,70.36 2640,117.79 C2656.4,124.68 2667.0726,134.7511 2676.1926,145.5211 " fill="none" id="system-to-logs" style="stroke:#181818;stroke-width:1.0;"/><polygon fill="#181818" points="2680.07,150.1,2677.3065,140.6468,2676.8389,146.2843,2671.2014,145.8166,2680.07,150.1" style="stroke:#181818;stroke-width:1.0;"/></g><!--link admin to manage roles--><g id="link_admin_manage roles"><path d="M6355.59,45.36 C6239.69,49.37 5686.57,70.75 5523,117.79 C5499.56,124.53 5480.1841,134.605 5463.0041,144.995 " fill="none" id="admin-to-manage roles" style="stroke:#181818;stroke-width:1.0;"/><polygon fill="#181818" points="5457.87,148.1,5467.6412,146.8653,5462.1484,145.5125,5463.5012,140.0198,5457.87,148.1" style="stroke:#181818;stroke-width:1.0;"/></g><!--link system to stores data--><g id="link_system_stores data"><path d="M1455.32,44.94 C1595.35,46.79 2275.86,58.75 2476,117.79 C2498.92,124.55 2517.5624,135.1397 2533.5324,145.7497 " fill="none" id="system-to-stores data" style="stroke:#181818;stroke-width:1.0;"/><polygon fill="#181818" points="2538.53,149.07,2533.2471,140.7579,2534.3653,146.3031,2528.8201,147.4213,2538.53,149.07" style="stroke:#181818;stroke-width:1.0;"/></g><!--SRC=[XLRDZjmW3BxdAT3UvnKgzTXRNu45Ju8cWHJ3Z7QhldjDmdHjODJ3I83Zdy_-R8ysAKI57vXWc_HvoViUOggtZ13hSTU8Zn1jlLgTT3r6A1fORzfkpayHJD9-Na7zdiY8qGZgRTDUpw1YM07VrDSxWhTg0qII2i4UmzrPGFNzvm_n3l4QueRgNPjRteLEtYaqKY7Tgrk1YyAUrCNveGUTqm8-EQEJ2-8Jap65pNs2SZwHOss4qPemL2lXpIs2EqHtTSM-jP4G3dtJG-kqfWeX9UTdeGRUn8-T79OI3BAY0XqE548jmgyCc9u55WWN2Xt-LLYWCmlOJ6LC6czDqNGqY_HW0k4Tsfd1bw3WIPQs_AXWqsxjdtr8bC2-AckOIIV64AKjeY3qgRaxU2XCP0Mfn0E-gDsPbAEehDlQH676lN1L6nEoJusTDMYh2kTaH8kEe4mWxlZKnRIu4l67J2DLVPX4uj3HaIYPGhIa7n4mpD8EDQIx5t2ZU4i2-VqzXDkcuuqyDnosuU5VO3jAL3jkIErhzWUtzUgIG6bX1OgiWtFC0bxq8ZqdbBfSlWqwIaWvBOH0TirqJAbJqkHRQ7KjMWADfwmX3ZVPiPsfYRApzxO9cQXhBEwhfVPK09uYtWnZMCtKutRR2JGs8ElBOcv88nFU4rDOvmD122JNfvhT_-VyEVXv58A0xDkc3tY51ek0M-oc0zELAsw0LimvORLl22vkrvqWA2_0i7nbht9hWnKYOf7RGCBez-00vdDMo73QTSv076DAz89SOoB7nqRYBsBsSYHVevHzNWV-L6s_SFZimbUzsOwZKLUTVu5aVdYp_laB]--></g></svg>