<?xml version="1.0" encoding="us-ascii" standalone="no"?><svg xmlns="http://www.w3.org/2000/svg" xmlns:xlink="http://www.w3.org/1999/xlink" contentStyleType="text/css" height="284px" preserveAspectRatio="none" style="width:503px;height:284px;background:#FFFFFF;" version="1.1" viewBox="0 0 503 284" width="503px" zoomAndPan="magnify"><defs/><g><!--class password--><g id="elem_password"><rect codeLine="4" fill="#F1F1F1" height="96.8906" id="password" rx="2.5" ry="2.5" style="stroke:#181818;stroke-width:0.5;" width="155" x="7" y="7"/><ellipse cx="47.2" cy="23" fill="#ADD1B2" rx="11" ry="11" style="stroke:#181818;stroke-width:1.0;"/><path d="M50.1688,28.6406 Q49.5906,28.9375 48.95,29.0781 Q48.3094,29.2344 47.6063,29.2344 Q45.1063,29.2344 43.7781,27.5938 Q42.4656,25.9375 42.4656,22.8125 Q42.4656,19.6875 43.7781,18.0313 Q45.1063,16.375 47.6063,16.375 Q48.3094,16.375 48.95,16.5313 Q49.6063,16.6875 50.1688,16.9844 L50.1688,19.7031 Q49.5438,19.125 48.95,18.8594 Q48.3563,18.5781 47.7313,18.5781 Q46.3875,18.5781 45.7,19.6563 Q45.0125,20.7188 45.0125,22.8125 Q45.0125,24.9063 45.7,25.9844 Q46.3875,27.0469 47.7313,27.0469 Q48.3563,27.0469 48.95,26.7813 Q49.5438,26.5 50.1688,25.9219 L50.1688,28.6406 Z " fill="#000000"/><text fill="#000000" font-family="sans-serif" font-size="14" lengthAdjust="spacing" textLength="67" x="66.8" y="27.8467">password</text><line style="stroke:#181818;stroke-width:0.5;" x1="8" x2="161" y1="39" y2="39"/><rect fill="none" height="6" style="stroke:#C82930;stroke-width:1.0;" width="6" x="15" y="49.6484"/><text fill="#000000" font-family="sans-serif" font-size="14" lengthAdjust="spacing" textLength="85" x="27" y="55.9951">email: String</text><rect fill="none" height="6" style="stroke:#C82930;stroke-width:1.0;" width="6" x="15" y="65.9453"/><text fill="#000000" font-family="sans-serif" font-size="14" lengthAdjust="spacing" textLength="116" x="27" y="72.292">password: String</text><line style="stroke:#181818;stroke-width:0.5;" x1="8" x2="161" y1="79.5938" y2="79.5938"/><ellipse cx="18" cy="93.2422" fill="#84BE84" rx="3" ry="3" style="stroke:#038048;stroke-width:1.0;"/><text fill="#000000" font-family="sans-serif" font-size="14" lengthAdjust="spacing" textLength="129" x="27" y="96.5889">recoverpassword()</text></g><!--class system--><g id="elem_system"><rect codeLine="10" fill="#F1F1F1" height="96.8906" id="system" rx="2.5" ry="2.5" style="stroke:#181818;stroke-width:0.5;" width="154" x="197.5" y="7"/><ellipse cx="245.25" cy="23" fill="#ADD1B2" rx="11" ry="11" style="stroke:#181818;stroke-width:1.0;"/><path d="M248.2188,28.6406 Q247.6406,28.9375 247,29.0781 Q246.3594,29.2344 245.6563,29.2344 Q243.1563,29.2344 241.8281,27.5938 Q240.5156,25.9375 240.5156,22.8125 Q240.5156,19.6875 241.8281,18.0313 Q243.1563,16.375 245.6563,16.375 Q246.3594,16.375 247,16.5313 Q247.6563,16.6875 248.2188,16.9844 L248.2188,19.7031 Q247.5938,19.125 247,18.8594 Q246.4063,18.5781 245.7813,18.5781 Q244.4375,18.5781 243.75,19.6563 Q243.0625,20.7188 243.0625,22.8125 Q243.0625,24.9063 243.75,25.9844 Q244.4375,27.0469 245.7813,27.0469 Q246.4063,27.0469 247,26.7813 Q247.5938,26.5 248.2188,25.9219 L248.2188,28.6406 Z " fill="#000000"/><text fill="#000000" font-family="sans-serif" font-size="14" lengthAdjust="spacing" textLength="50" x="265.75" y="27.8467">system</text><line style="stroke:#181818;stroke-width:0.5;" x1="198.5" x2="350.5" y1="39" y2="39"/><line style="stroke:#181818;stroke-width:0.5;" x1="198.5" x2="350.5" y1="47" y2="47"/><ellipse cx="208.5" cy="60.6484" fill="#84BE84" rx="3" ry="3" style="stroke:#038048;stroke-width:1.0;"/><text fill="#000000" font-family="sans-serif" font-size="14" lengthAdjust="spacing" textLength="128" x="217.5" y="63.9951">sendsnotification()</text><ellipse cx="208.5" cy="76.9453" fill="#84BE84" rx="3" ry="3" style="stroke:#038048;stroke-width:1.0;"/><text fill="#000000" font-family="sans-serif" font-size="14" lengthAdjust="spacing" textLength="39" x="217.5" y="80.292">logs()</text><ellipse cx="208.5" cy="93.2422" fill="#84BE84" rx="3" ry="3" style="stroke:#038048;stroke-width:1.0;"/><text fill="#000000" font-family="sans-serif" font-size="14" lengthAdjust="spacing" textLength="84" x="217.5" y="96.5889">storesdata()</text></g><!--class data--><g id="elem_data"><rect codeLine="16" fill="#F1F1F1" height="64.2969" id="data" rx="2.5" ry="2.5" style="stroke:#181818;stroke-width:0.5;" width="110" x="386.5" y="23.3"/><ellipse cx="423.1" cy="39.3" fill="#ADD1B2" rx="11" ry="11" style="stroke:#181818;stroke-width:1.0;"/><path d="M426.0688,44.9406 Q425.4906,45.2375 424.85,45.3781 Q424.2094,45.5344 423.5063,45.5344 Q421.0063,45.5344 419.6781,43.8937 Q418.3656,42.2375 418.3656,39.1125 Q418.3656,35.9875 419.6781,34.3312 Q421.0063,32.675 423.5063,32.675 Q424.2094,32.675 424.85,32.8312 Q425.5063,32.9875 426.0688,33.2844 L426.0688,36.0031 Q425.4438,35.425 424.85,35.1594 Q424.2563,34.8781 423.6313,34.8781 Q422.2875,34.8781 421.6,35.9562 Q420.9125,37.0187 420.9125,39.1125 Q420.9125,41.2062 421.6,42.2844 Q422.2875,43.3469 423.6313,43.3469 Q424.2563,43.3469 424.85,43.0812 Q425.4438,42.8 426.0688,42.2219 L426.0688,44.9406 Z " fill="#000000"/><text fill="#000000" font-family="sans-serif" font-size="14" lengthAdjust="spacing" textLength="30" x="441.9" y="44.1467">data</text><line style="stroke:#181818;stroke-width:0.5;" x1="387.5" x2="495.5" y1="55.3" y2="55.3"/><line style="stroke:#181818;stroke-width:0.5;" x1="387.5" x2="495.5" y1="63.3" y2="63.3"/><ellipse cx="397.5" cy="76.9484" fill="#84BE84" rx="3" ry="3" style="stroke:#038048;stroke-width:1.0;"/><text fill="#000000" font-family="sans-serif" font-size="14" lengthAdjust="spacing" textLength="84" x="406.5" y="80.2951">storesdata()</text></g><!--class admin--><g id="elem_admin"><rect codeLine="20" fill="#F1F1F1" height="80.5938" id="admin" rx="2.5" ry="2.5" style="stroke:#181818;stroke-width:0.5;" width="119" x="25" y="180.19"/><ellipse cx="60.25" cy="196.19" fill="#ADD1B2" rx="11" ry="11" style="stroke:#181818;stroke-width:1.0;"/><path d="M63.2188,201.8306 Q62.6406,202.1275 62,202.2681 Q61.3594,202.4244 60.6563,202.4244 Q58.1563,202.4244 56.8281,200.7838 Q55.5156,199.1275 55.5156,196.0025 Q55.5156,192.8775 56.8281,191.2213 Q58.1563,189.565 60.6563,189.565 Q61.3594,189.565 62,189.7213 Q62.6563,189.8775 63.2188,190.1744 L63.2188,192.8931 Q62.5938,192.315 62,192.0494 Q61.4063,191.7681 60.7813,191.7681 Q59.4375,191.7681 58.75,192.8463 Q58.0625,193.9088 58.0625,196.0025 Q58.0625,198.0963 58.75,199.1744 Q59.4375,200.2369 60.7813,200.2369 Q61.4063,200.2369 62,199.9713 Q62.5938,199.69 63.2188,199.1119 L63.2188,201.8306 Z " fill="#000000"/><text fill="#000000" font-family="sans-serif" font-size="14" lengthAdjust="spacing" textLength="42" x="78.75" y="201.0367">admin</text><line style="stroke:#181818;stroke-width:0.5;" x1="26" x2="143" y1="212.19" y2="212.19"/><line style="stroke:#181818;stroke-width:0.5;" x1="26" x2="143" y1="220.19" y2="220.19"/><ellipse cx="36" cy="233.8384" fill="#84BE84" rx="3" ry="3" style="stroke:#038048;stroke-width:1.0;"/><text fill="#000000" font-family="sans-serif" font-size="14" lengthAdjust="spacing" textLength="93" x="45" y="237.1851">deleteusers()</text><ellipse cx="36" cy="250.1353" fill="#84BE84" rx="3" ry="3" style="stroke:#038048;stroke-width:1.0;"/><text fill="#000000" font-family="sans-serif" font-size="14" lengthAdjust="spacing" textLength="75" x="45" y="253.482">addusers()</text></g><!--class user--><g id="elem_user"><rect codeLine="25" fill="#F1F1F1" height="113.1875" id="user" rx="2.5" ry="2.5" style="stroke:#181818;stroke-width:0.5;" width="155" x="179" y="163.89"/><ellipse cx="236.75" cy="179.89" fill="#ADD1B2" rx="11" ry="11" style="stroke:#181818;stroke-width:1.0;"/><path d="M239.7188,185.5306 Q239.1406,185.8275 238.5,185.9681 Q237.8594,186.1244 237.1563,186.1244 Q234.6563,186.1244 233.3281,184.4838 Q232.0156,182.8275 232.0156,179.7025 Q232.0156,176.5775 233.3281,174.9213 Q234.6563,173.265 237.1563,173.265 Q237.8594,173.265 238.5,173.4213 Q239.1563,173.5775 239.7188,173.8744 L239.7188,176.5931 Q239.0938,176.015 238.5,175.7494 Q237.9063,175.4681 237.2813,175.4681 Q235.9375,175.4681 235.25,176.5463 Q234.5625,177.6088 234.5625,179.7025 Q234.5625,181.7963 235.25,182.8744 Q235.9375,183.9369 237.2813,183.9369 Q237.9063,183.9369 238.5,183.6713 Q239.0938,183.39 239.7188,182.8119 L239.7188,185.5306 Z " fill="#000000"/><text fill="#000000" font-family="sans-serif" font-size="14" lengthAdjust="spacing" textLength="31" x="257.25" y="184.7367">user</text><line style="stroke:#181818;stroke-width:0.5;" x1="180" x2="333" y1="195.89" y2="195.89"/><rect fill="none" height="6" style="stroke:#C82930;stroke-width:1.0;" width="6" x="187" y="206.5384"/><text fill="#000000" font-family="sans-serif" font-size="14" lengthAdjust="spacing" textLength="85" x="199" y="212.8851">email: String</text><rect fill="none" height="6" style="stroke:#C82930;stroke-width:1.0;" width="6" x="187" y="222.8353"/><text fill="#000000" font-family="sans-serif" font-size="14" lengthAdjust="spacing" textLength="116" x="199" y="229.182">password: String</text><line style="stroke:#181818;stroke-width:0.5;" x1="180" x2="333" y1="236.4838" y2="236.4838"/><ellipse cx="190" cy="250.1322" fill="#84BE84" rx="3" ry="3" style="stroke:#038048;stroke-width:1.0;"/><text fill="#000000" font-family="sans-serif" font-size="14" lengthAdjust="spacing" textLength="129" x="199" y="253.4789">recoverpassword()</text><ellipse cx="190" cy="266.4291" fill="#84BE84" rx="3" ry="3" style="stroke:#038048;stroke-width:1.0;"/><text fill="#000000" font-family="sans-serif" font-size="14" lengthAdjust="spacing" textLength="129" x="199" y="269.7757">changepassword()</text></g><!--SRC=[fP1D2i8m44RtESNigXGlq9ru14ymPCOwa2QI6HKHxsvJ6gm_ExC8oPil3xuqku2gh9rhDilbd2y3E8tRDMM2kmFO00yeeOEzPOdzH6fW0Ll8xDE5Svsjrku1rQWtDHucNmlAaJGcauDuD4bnZ1OUKg_pKIrbLaB3Dqq1LV8xWJH8d2F4WOtFohbgaQXUNqyA-RTfeVw8iUUF-irMDNcPQdxzznC0]--></g></svg>