<?xml version="1.0" encoding="us-ascii" standalone="no"?><svg xmlns="http://www.w3.org/2000/svg" xmlns:xlink="http://www.w3.org/1999/xlink" contentStyleType="text/css" height="201px" preserveAspectRatio="none" style="width:1197px;height:201px;background:#FFFFFF;" version="1.1" viewBox="0 0 1197 201" width="1197px" zoomAndPan="magnify"><defs/><g><g id="cluster_##7"><rect fill="none" height="69.55" rx="2.5" ry="2.5" style="stroke:#181818;stroke-width:1.0;" width="1184" x="7" y="125.79"/></g><g id="elem_delete users"><ellipse cx="1107.0007" cy="160.5661" fill="#F1F1F1" rx="67.8807" ry="15.9761" style="stroke:#181818;stroke-width:0.5;"/><text fill="#000000" font-family="sans-serif" font-size="14" lengthAdjust="spacing" textLength="87" x="1060.5007" y="164.3137">delete users</text></g><g id="elem_recover password"><ellipse cx="565.9958" cy="160.5732" fill="#F1F1F1" rx="81.8658" ry="18.7732" style="stroke:#181818;stroke-width:0.5;"/><text fill="#000000" font-family="sans-serif" font-size="14" lengthAdjust="spacing" textLength="123" x="503.5105" y="163.7463">recover password</text></g><g id="elem_sends notification"><ellipse cx="202.9955" cy="160.5691" fill="#F1F1F1" rx="81.4455" ry="18.6891" style="stroke:#181818;stroke-width:0.5;"/><text fill="#000000" font-family="sans-serif" font-size="14" lengthAdjust="spacing" textLength="122" x="140.8609" y="163.789">sends notification</text></g><g id="elem_change password"><ellipse cx="764.9958" cy="160.5732" fill="#F1F1F1" rx="81.8658" ry="18.7732" style="stroke:#181818;stroke-width:0.5;"/><text fill="#000000" font-family="sans-serif" font-size="14" lengthAdjust="spacing" textLength="123" x="702.5105" y="163.7463">change password</text></g><g id="elem_logs"><ellipse cx="55.0014" cy="160.5736" fill="#F1F1F1" rx="31.9914" ry="14.5236" style="stroke:#181818;stroke-width:0.5;"/><text fill="#000000" font-family="sans-serif" font-size="14" lengthAdjust="spacing" textLength="29" x="40.5014" y="163.4203">logs</text></g><g id="elem_add users"><ellipse cx="942.9997" cy="160.572" fill="#F1F1F1" rx="61.5597" ry="14.782" style="stroke:#181818;stroke-width:0.5;"/><text fill="#000000" font-family="sans-serif" font-size="14" lengthAdjust="spacing" textLength="69" x="905.4997" y="164.3195">add users</text></g><g id="elem_stores data"><ellipse cx="383.9953" cy="160.5671" fill="#F1F1F1" rx="64.7353" ry="15.3471" style="stroke:#181818;stroke-width:0.5;"/><text fill="#000000" font-family="sans-serif" font-size="14" lengthAdjust="spacing" textLength="78" x="341.9953" y="164.3146">stores data</text></g><!--entity password--><g id="elem_password"><ellipse cx="566" cy="14" fill="#F1F1F1" rx="8" ry="8" style="stroke:#181818;stroke-width:0.5;"/><path d="M566,22 L566,49 M553,30 L579,30 M566,49 L553,64 M566,49 L579,64 " fill="none" style="stroke:#181818;stroke-width:0.5;"/><text fill="#000000" font-family="sans-serif" font-size="14" lengthAdjust="spacing" textLength="67" x="532.5" y="78.4951">password</text></g><!--entity system--><g id="elem_system"><ellipse cx="203" cy="14" fill="#F1F1F1" rx="8" ry="8" style="stroke:#181818;stroke-width:0.5;"/><path d="M203,22 L203,49 M190,30 L216,30 M203,49 L190,64 M203,49 L216,64 " fill="none" style="stroke:#181818;stroke-width:0.5;"/><text fill="#000000" font-family="sans-serif" font-size="14" lengthAdjust="spacing" textLength="50" x="178" y="78.4951">system</text></g><!--entity data--><g id="elem_data"><ellipse cx="384" cy="14" fill="#F1F1F1" rx="8" ry="8" style="stroke:#181818;stroke-width:0.5;"/><path d="M384,22 L384,49 M371,30 L397,30 M384,49 L371,64 M384,49 L397,64 " fill="none" style="stroke:#181818;stroke-width:0.5;"/><text fill="#000000" font-family="sans-serif" font-size="14" lengthAdjust="spacing" textLength="30" x="369" y="78.4951">data</text></g><!--entity admin--><g id="elem_admin"><ellipse cx="1025" cy="14" fill="#F1F1F1" rx="8" ry="8" style="stroke:#181818;stroke-width:0.5;"/><path d="M1025,22 L1025,49 M1012,30 L1038,30 M1025,49 L1012,64 M1025,49 L1038,64 " fill="none" style="stroke:#181818;stroke-width:0.5;"/><text fill="#000000" font-family="sans-serif" font-size="14" lengthAdjust="spacing" textLength="42" x="1004" y="78.4951">admin</text></g><!--entity user--><g id="elem_user"><ellipse cx="708" cy="14" fill="#F1F1F1" rx="8" ry="8" style="stroke:#181818;stroke-width:0.5;"/><path d="M708,22 L708,49 M695,30 L721,30 M708,49 L695,64 M708,49 L721,64 " fill="none" style="stroke:#181818;stroke-width:0.5;"/><text fill="#000000" font-family="sans-serif" font-size="14" lengthAdjust="spacing" textLength="31" x="692.5" y="78.4951">user</text></g><!--link data to stores data--><g id="link_data_stores data"><path d="M384,82.27 C384,103.62 384,123.11 384,138.83 " fill="none" id="data-to-stores data" style="stroke:#181818;stroke-width:1.0;"/><polygon fill="#181818" points="384,144.83,388,135.83,384,139.83,380,135.83,384,144.83" style="stroke:#181818;stroke-width:1.0;"/></g><!--link password to recover password--><g id="link_password_recover password"><path d="M566,82.27 C566,102.17 566,119.69 566,135.52 " fill="none" id="password-to-recover password" style="stroke:#181818;stroke-width:1.0;"/><polygon fill="#181818" points="566,141.52,570,132.52,566,136.52,562,132.52,566,141.52" style="stroke:#181818;stroke-width:1.0;"/></g><!--link system to stores data--><g id="link_system_stores data"><path d="M228.17,60.62 C263.82,83.26 323.365,121.0635 357.095,142.4835 " fill="none" id="system-to-stores data" style="stroke:#181818;stroke-width:1.0;"/><polygon fill="#181818" points="362.16,145.7,356.7068,137.4986,357.9392,143.0196,352.4182,144.2519,362.16,145.7" style="stroke:#181818;stroke-width:1.0;"/></g><!--link user to change password--><g id="link_user_change password"><path d="M723.88,76.66 C734.29,97.64 744.8441,118.9348 753.4441,136.2748 " fill="none" id="user-to-change password" style="stroke:#181818;stroke-width:1.0;"/><polygon fill="#181818" points="756.11,141.65,755.6946,131.8099,753.8884,137.1707,748.5277,135.3644,756.11,141.65" style="stroke:#181818;stroke-width:1.0;"/></g><!--link system to sends notification--><g id="link_system_sends notification"><path d="M203,82.27 C203,102.17 203,119.69 203,135.52 " fill="none" id="system-to-sends notification" style="stroke:#181818;stroke-width:1.0;"/><polygon fill="#181818" points="203,141.52,207,132.52,203,136.52,199,132.52,203,141.52" style="stroke:#181818;stroke-width:1.0;"/></g><!--link admin to add users--><g id="link_admin_add users"><path d="M1003.67,74.54 C987.35,97.42 969.0551,123.0559 956.5251,140.6159 " fill="none" id="admin-to-add users" style="stroke:#181818;stroke-width:1.0;"/><polygon fill="#181818" points="953.04,145.5,961.5237,140.4972,955.9442,141.4299,955.0115,135.8505,953.04,145.5" style="stroke:#181818;stroke-width:1.0;"/></g><!--link system to logs--><g id="link_system_logs"><path d="M177.82,62.51 C157.59,77.04 128.6,98.26 104,117.79 C91.92,127.39 83.1398,134.8339 73.4498,143.2939 " fill="none" id="system-to-logs" style="stroke:#181818;stroke-width:1.0;"/><polygon fill="#181818" points="68.93,147.24,78.3404,144.3341,72.6965,143.9516,73.079,138.3077,68.93,147.24" style="stroke:#181818;stroke-width:1.0;"/></g><!--link admin to delete users--><g id="link_admin_delete users"><path d="M1046.33,74.54 C1062.37,97.02 1080.1849,121.9859 1092.8149,139.6859 " fill="none" id="admin-to-delete users" style="stroke:#181818;stroke-width:1.0;"/><polygon fill="#181818" points="1096.3,144.57,1094.3284,134.9205,1093.3958,140.4999,1087.8163,139.5673,1096.3,144.57" style="stroke:#181818;stroke-width:1.0;"/></g><!--link user to recover password--><g id="link_user_recover password"><path d="M692.26,57.38 C666.7,78.07 620.7941,115.2256 592.0141,138.5156 " fill="none" id="user-to-recover password" style="stroke:#181818;stroke-width:1.0;"/><polygon fill="#181818" points="587.35,142.29,596.8624,139.7378,591.2368,139.1447,591.8299,133.519,587.35,142.29" style="stroke:#181818;stroke-width:1.0;"/></g><!--SRC=[RL113iCW3Blp2jHxlx2_H2Jha5gOIBPfclRtKQ02HayaTeoTW14Vz1sONpwWWjJocuMsqY08b19miwxK3wQW0Xa1jwoaFoe21fZqXBIIK1hWILSy3lidLREMOtB8sdcnLsj0h7SjQsxHX4w5gryw4q0SdJa69awRH7X_z3nVUbmTlsTg2AloKKw4krs6_tFscd55bGwQwHgyKwNzshdkkett6FZx0m00]--></g></svg>